<svg width="160" height="84" viewBox="0 0 160 84" fill="none" xmlns="http://www.w3.org/2000/svg">
<path d="M103.157 55.0399C100.984 57.2386 97.4182 56.7662 95.3757 54.7064C93.0651 55.8666 90.1562 55.1649 89.6094 53.0287C86.924 53.6019 84.8128 51.4344 86.336 48.9231C84.2076 47.5372 84.469 43.8588 86.6111 43.5288C84.8644 42.1012 85.473 38.4124 87.8593 38.3811C86.2673 36.9014 87.6667 34.1747 89.4753 33.9559C86.955 33.7058 86.8552 30.7533 88.4851 29.5098C86.759 27.53 87.371 24.4247 89.7504 23.8759C88.1068 21.8751 89.3206 18.8636 92.0095 19.2735C91.2633 17.0505 93.5499 14.5218 95.9328 16.0466C96.2629 14.1189 98.8073 13.0595 100.561 14.8309C100.561 14.8309 101.097 13.2262 103.154 13.2401C105.21 13.2262 105.746 14.8309 105.746 14.8309C107.5 13.0595 110.044 14.1189 110.374 16.0466C112.761 14.5253 115.047 17.0505 114.298 19.2735C116.986 18.8636 118.204 21.8751 116.557 23.8759C118.936 24.4247 119.552 27.5265 117.822 29.5098C119.452 30.7533 119.352 33.7058 116.832 33.9559C118.644 34.1747 120.043 36.9014 118.448 38.3811C120.834 38.4124 121.443 42.1012 119.696 43.5288C121.838 43.8553 122.099 47.5337 119.971 48.9231C121.494 51.4344 119.383 53.6019 116.698 53.0287C116.151 55.1684 113.242 55.8666 110.931 54.7064C108.892 56.7662 105.327 57.2386 103.15 55.0399H103.157Z" stroke="#DB4200" stroke-width="0.918067" stroke-linecap="round" stroke-linejoin="round"/>
<path d="M106.507 21.7756C105.445 21.7756 104.585 20.9063 104.585 19.8339C104.585 18.7616 105.445 17.8922 106.507 17.8922C107.568 17.8922 108.429 18.7616 108.429 19.8339C108.429 20.9063 107.568 21.7756 106.507 21.7756Z" stroke="#DB4200" stroke-width="0.835544" stroke-linecap="round" stroke-linejoin="round"/>
<path d="M99.805 21.7756C98.7434 21.7756 97.8829 20.9063 97.8829 19.8339C97.8829 18.7616 98.7434 17.8922 99.805 17.8922C100.867 17.8922 101.727 18.7616 101.727 19.8339C101.727 20.9063 100.867 21.7756 99.805 21.7756Z" stroke="#DB4200" stroke-width="0.835544" stroke-linecap="round" stroke-linejoin="round"/>
<path d="M104.992 19.8275C104.992 20.6253 105.494 21.2012 106.035 21.2012C106.577 21.2012 107.078 20.6253 107.078 19.8275C107.078 19.0296 106.577 18.4537 106.035 18.4537C105.494 18.4537 104.992 19.0296 104.992 19.8275Z" fill="#DB4200" stroke="#DB4200" stroke-width="0.328077"/>
<path d="M98.454 19.8275C98.454 20.6253 98.9559 21.2012 99.4973 21.2012C100.039 21.2012 100.541 20.6253 100.541 19.8275C100.541 19.0296 100.039 18.4537 99.4973 18.4537C98.9559 18.4537 98.454 19.0296 98.454 19.8275Z" fill="#DB4200" stroke="#DB4200" stroke-width="0.328077"/>
<path d="M109.386 12.0649C109.386 12.0649 109.606 11.0263 108.089 11.5335C106.573 12.0406 107.546 10.3177 106.222 10.7693C104.898 11.2208 104.802 10.1892 104.802 10.1892" fill="#1DADFF"/>
<path d="M109.386 12.0649C109.386 12.0649 109.606 11.0263 108.089 11.5335C106.573 12.0406 107.546 10.3177 106.222 10.7693C104.898 11.2208 104.802 10.1892 104.802 10.1892" stroke="#DB4200" stroke-width="0.918067" stroke-linecap="round" stroke-linejoin="round"/>
<path d="M96.9278 12.0649C96.9278 12.0649 96.7078 11.0263 98.2241 11.5335C99.7405 12.0406 98.7674 10.3177 100.091 10.7693C101.415 11.2208 101.511 10.1892 101.511 10.1892" fill="#1DADFF"/>
<path d="M96.9278 12.0649C96.9278 12.0649 96.7078 11.0263 98.2241 11.5335C99.7405 12.0406 98.7674 10.3177 100.091 10.7693C101.415 11.2208 101.511 10.1892 101.511 10.1892" stroke="#DB4200" stroke-width="0.918067" stroke-linecap="round" stroke-linejoin="round"/>
<path d="M74.6069 16.5054C69.0022 16.5054 63.3253 19.3085 64.46 13.817C65.6153 8.22813 69.0022 3.56671 74.6069 3.56671C80.2116 3.56671 83.8117 8.65537 84.7538 13.817C85.7578 19.3329 80.2116 16.5054 74.6069 16.5054Z" stroke="#DB4200" stroke-width="0.918067" stroke-linecap="round" stroke-linejoin="round"/>
<path d="M76.6875 6.64141C76.6875 6.99125 76.9678 7.27186 77.3098 7.27186C77.6519 7.27186 77.9322 6.99125 77.9322 6.64141C77.9322 6.29157 77.6519 6.01096 77.3098 6.01096C76.9678 6.01096 76.6875 6.29157 76.6875 6.64141Z" fill="#DB4200" stroke="#DB4200" stroke-width="0.343845"/>
<path d="M71.5603 6.64141C71.5603 6.99125 71.8406 7.27186 72.1826 7.27186C72.5247 7.27186 72.805 6.99125 72.805 6.64141C72.805 6.29157 72.5247 6.01096 72.1826 6.01096C71.8406 6.01096 71.5603 6.29157 71.5603 6.64141Z" fill="#DB4200" stroke="#DB4200" stroke-width="0.343845"/>
<path d="M78.666 2.23665C78.666 2.23665 78.8104 1.55238 77.8099 1.88583C76.8093 2.21929 77.4523 1.08346 76.5789 1.38217C75.7055 1.68089 75.6436 1.00009 75.6436 1.00009" fill="#1DADFF"/>
<path d="M78.666 2.23665C78.666 2.23665 78.8104 1.55238 77.8099 1.88583C76.8093 2.21928 77.4523 1.08346 76.5789 1.38217C75.7055 1.68089 75.6436 1.00009 75.6436 1.00009" stroke="#DB4200" stroke-width="0.918067" stroke-linecap="round" stroke-linejoin="round"/>
<path d="M70.5246 2.23665C70.5246 2.23665 70.3802 1.55238 71.3808 1.88583C72.3814 2.21929 71.7384 1.08346 72.6118 1.38217C73.4852 1.68089 73.5471 1.00009 73.5471 1.00009" fill="#1DADFF"/>
<path d="M70.5246 2.23665C70.5246 2.23665 70.3802 1.55238 71.3808 1.88583C72.3814 2.21928 71.7384 1.08346 72.6118 1.38217C73.4852 1.68089 73.5471 1.00009 73.5471 1.00009" stroke="#DB4200" stroke-width="0.918067" stroke-linecap="round" stroke-linejoin="round"/>
<path d="M75.8554 16.7674V19.2405L76.7322 20.1227" stroke="#DB4200" stroke-width="0.918067" stroke-linecap="round" stroke-linejoin="round"/>
<path d="M73.3238 16.7674V19.2405L72.4504 20.1227" stroke="#DB4200" stroke-width="0.918067" stroke-linecap="round" stroke-linejoin="round"/>
<path d="M79.5767 17.2285C79.5767 19.1841 81.2478 19.1841 81.2478 21.1362C81.2478 23.0917 79.5767 23.0917 79.5767 25.0438C79.5767 26.9994 81.2478 26.9994 81.2478 28.9515C81.2478 30.9071 79.5767 30.9071 79.5767 32.8626C79.5767 34.8182 81.2478 34.8182 81.2478 36.7738" stroke="#DB4200" stroke-width="0.918067" stroke-linecap="round" stroke-linejoin="round"/>
<path d="M67.9324 17.2285C67.9324 19.1841 69.6035 19.1841 69.6035 21.1362C69.6035 23.0917 67.9324 23.0917 67.9324 25.0438C67.9324 26.9994 69.6035 26.9994 69.6035 28.9515C69.6035 30.9071 67.9324 30.9071 67.9324 32.8626C67.9324 34.8182 69.6035 34.8182 69.6035 36.7738" stroke="#DB4200" stroke-width="0.918067" stroke-linecap="round" stroke-linejoin="round"/>
<path d="M46.1729 47.9415C46.1729 52.6759 50.0068 56.5071 54.7106 56.4446C59.1909 56.3821 62.87 52.728 63.0041 48.2021C63.0764 45.7915 62.1514 43.5997 60.6213 42.0089C60.2224 41.592 60.1915 40.939 60.556 40.4909C61.6425 39.1467 62.2924 37.4308 62.2855 35.5586C62.2752 31.3383 58.8814 27.8649 54.7037 27.8023C50.4022 27.7398 46.895 31.2446 46.895 35.576C46.895 37.4378 47.5414 39.1467 48.6245 40.484C48.989 40.9321 48.9649 41.5886 48.5661 42.0054C47.0875 43.5372 46.1763 45.6317 46.1763 47.9415H46.1729Z" stroke="#DB4200" stroke-width="0.86649" stroke-linecap="round" stroke-linejoin="round"/>
<path d="M56.8693 34.7388C56.0489 34.7388 55.3839 33.8213 55.3839 32.6894C55.3839 31.5576 56.0489 30.6401 56.8693 30.6401C57.6897 30.6401 58.3547 31.5576 58.3547 32.6894C58.3547 33.8213 57.6897 34.7388 56.8693 34.7388Z" stroke="#DB4200" stroke-width="0.835544" stroke-linecap="round" stroke-linejoin="round"/>
<path d="M52.316 34.7388C51.4956 34.7388 50.8306 33.8213 50.8306 32.6894C50.8306 31.5576 51.4956 30.6401 52.316 30.6401C53.1363 30.6401 53.8014 31.5576 53.8014 32.6894C53.8014 33.8213 53.1363 34.7388 52.316 34.7388Z" stroke="#DB4200" stroke-width="0.835544" stroke-linecap="round" stroke-linejoin="round"/>
<path d="M55.6744 32.7081C55.6744 33.1578 55.7635 33.5565 55.8998 33.8363C56.0417 34.1278 56.205 34.2382 56.3312 34.2382C56.4574 34.2382 56.6206 34.1278 56.7626 33.8363C56.8988 33.5565 56.9879 33.1578 56.9879 32.7081C56.9879 32.2584 56.8988 31.8597 56.7626 31.5798C56.6206 31.2884 56.4574 31.178 56.3312 31.178C56.205 31.178 56.0417 31.2884 55.8998 31.5798C55.7635 31.8597 55.6744 32.2584 55.6744 32.7081Z" fill="#DB4200" stroke="#DB4200" stroke-width="0.343845"/>
<path d="M51.0022 32.6896C51.0022 33.1379 51.0962 33.5353 51.24 33.8143C51.3883 34.1022 51.5625 34.2197 51.7071 34.2197C51.8517 34.2197 52.026 34.1022 52.1743 33.8143C52.318 33.5353 52.412 33.1379 52.412 32.6896C52.412 32.2412 52.318 31.8438 52.1743 31.5648C52.026 31.2769 51.8517 31.1595 51.7071 31.1595C51.5625 31.1595 51.3883 31.2769 51.24 31.5648C51.0962 31.8438 51.0022 32.2412 51.0022 32.6896Z" fill="#DB4200" stroke="#DB4200" stroke-width="0.343845"/>
<path d="M58.6641 26.5749C58.6641 26.5749 58.8085 25.8906 57.8079 26.2241C56.8073 26.5575 57.4503 25.4217 56.5769 25.7204C55.7036 26.0192 55.6417 25.3383 55.6417 25.3383" fill="#1DADFF"/>
<path d="M58.6641 26.5749C58.6641 26.5749 58.8085 25.8906 57.8079 26.2241C56.8073 26.5575 57.4503 25.4217 56.5769 25.7204C55.7036 26.0192 55.6417 25.3383 55.6417 25.3383" stroke="#DB4200" stroke-width="0.918067" stroke-linecap="round" stroke-linejoin="round"/>
<path d="M50.5227 26.5749C50.5227 26.5749 50.3783 25.8906 51.3789 26.2241C52.3795 26.5575 51.7365 25.4217 52.6098 25.7204C53.4832 26.0192 53.5451 25.3383 53.5451 25.3383" fill="#1DADFF"/>
<path d="M50.5227 26.5749C50.5227 26.5749 50.3783 25.8906 51.3789 26.2241C52.3795 26.5575 51.7365 25.4217 52.6098 25.7204C53.4832 26.0192 53.5451 25.3383 53.5451 25.3383" stroke="#DB4200" stroke-width="0.918067" stroke-linecap="round" stroke-linejoin="round"/>
<path d="M6.38932 39.7543C6.38932 40.7269 6.38589 41.7481 6.51999 42.9221C7.98477 55.5447 13.3797 56.3714 24.2349 56.3714C35.0901 56.3714 41.128 55.8469 41.9498 42.9221C42.3934 35.9613 40.4231 22.2584 32.9651 23.686C25.6894 25.0754 31.9783 37.9759 24.2349 36.3815C17.9185 35.0825 27.7662 17.9061 18.0388 15.1551C11.4335 13.2899 8.21515 24.0021 6.95324 33.1338C3.95834 32.8803 1.603 33.2519 1.27979 35.8571C0.956571 38.4483 3.33253 39.3583 6.38588 39.7508L6.38932 39.7543Z" stroke="#DB4200" stroke-width="0.918067" stroke-linecap="round" stroke-linejoin="round"/>
<path d="M12.3877 35.755C11.3261 35.755 10.4656 34.8857 10.4656 33.8134C10.4656 32.741 11.3261 31.8717 12.3877 31.8717C13.4492 31.8717 14.3098 32.741 14.3098 33.8134C14.3098 34.8857 13.4492 35.755 12.3877 35.755Z" stroke="#DB4200" stroke-width="0.835544" stroke-linecap="round" stroke-linejoin="round"/>
<path d="M8.54296 34.4155C7.48141 34.4155 6.62086 33.5462 6.62086 32.4739C6.62086 31.4015 7.48141 30.5322 8.54296 30.5322C9.6045 30.5322 10.4651 31.4015 10.4651 32.4739C10.4651 33.5462 9.6045 34.4155 8.54296 34.4155Z" stroke="#DB4200" stroke-width="0.835544" stroke-linecap="round" stroke-linejoin="round"/>
<path d="M10.9253 33.7938C10.9253 34.1677 11.0392 34.4996 11.2151 34.7341C11.391 34.9686 11.6208 35.0976 11.8602 35.0976C12.0996 35.0976 12.3294 34.9686 12.5052 34.7341C12.6811 34.4996 12.795 34.1677 12.795 33.7938C12.795 33.4199 12.6811 33.088 12.5052 32.8535C12.3294 32.619 12.0996 32.49 11.8602 32.49C11.6208 32.49 11.391 32.619 11.2151 32.8535C11.0392 33.088 10.9253 33.4199 10.9253 33.7938Z" fill="#DB4200" stroke="#DB4200" stroke-width="0.343845"/>
<path d="M6.77924 32.4634C6.77924 33.262 7.28152 33.8384 7.82343 33.8384C8.36534 33.8384 8.86762 33.262 8.86762 32.4634C8.86762 31.6648 8.36534 31.0885 7.82343 31.0885C7.28152 31.0885 6.77924 31.6648 6.77924 32.4634Z" fill="#DB4200" stroke="#DB4200" stroke-width="0.328361"/>
<path d="M14.9807 29.5724C14.9807 29.5724 15.2145 28.9125 14.1795 29.1105C13.1445 29.3085 13.9285 28.2664 13.0276 28.4436C12.1267 28.6207 12.1508 27.9364 12.1508 27.9364" fill="#1DADFF"/>
<path d="M14.9807 29.5724C14.9807 29.5724 15.2145 28.9125 14.1795 29.1105C13.1445 29.3085 13.9285 28.2664 13.0276 28.4436C12.1267 28.6207 12.1508 27.9364 12.1508 27.9364" stroke="#DB4200" stroke-width="0.918067" stroke-linecap="round" stroke-linejoin="round"/>
<path d="M6.53565 29.1086C6.53565 29.1086 6.40498 28.4208 7.3987 28.7786C8.39241 29.1364 7.77349 27.9832 8.63999 28.3027C9.50648 28.6188 9.58212 27.9415 9.58212 27.9415" fill="#1DADFF"/>
<path d="M6.53565 29.1086C6.53565 29.1086 6.40498 28.4208 7.3987 28.7786C8.39241 29.1364 7.77349 27.9832 8.63999 28.3027C9.50648 28.6188 9.58212 27.9415 9.58212 27.9415" stroke="#DB4200" stroke-width="0.918067" stroke-linecap="round" stroke-linejoin="round"/>
<path d="M148.327 39.0115C152.749 38.0355 157.16 34.7149 158.264 31.422C159.368 28.1291 158.725 24.0409 154.939 23.6588C152.178 23.4747 150.658 25.1836 150.778 28.1604C150.833 29.5255 150.816 31.4428 150.404 32.1792C149.541 33.7249 148.495 34.503 146.408 35.0448C147.319 28.6467 146.394 21.6268 141.237 17.3926C136.007 12.4707 128.896 21.1544 134.944 24.9995C138.417 27.2087 139.634 30.4772 140.044 34.2876C136.234 31.8215 131.293 30.5988 127.246 33.2977C124.484 34.7635 122.164 38.1467 124.66 40.9359C126.482 43.0408 129.962 42.6379 131.282 40.1925C131.729 39.411 132.18 38.7406 132.998 38.3724C134.624 37.7055 136.932 38.296 138.843 38.817C133.455 41.9154 130.192 46.2537 129.171 53.6592C128.982 55.0312 129.804 56.3095 131.176 56.3095H138.919C140.26 56.3095 141.25 55.0486 140.941 53.7321C139.968 49.6091 139.321 45.1596 142.567 42.0508C146.198 44.9026 145.476 49.425 144.606 53.7947C144.348 55.0937 145.328 56.3095 146.642 56.3095H154.533C155.884 56.3095 156.885 55.0208 156.548 53.6974C155.248 48.5914 152.401 42.1064 148.327 39.0115Z" stroke="#DB4200" stroke-width="0.918067" stroke-linecap="round" stroke-linejoin="round"/>
<path d="M144.275 35.6779L144.276 35.6783V35.749C144.276 35.9135 144.292 36.0243 144.334 36.1193C144.375 36.2127 144.449 36.3074 144.595 36.4234C144.621 36.4431 144.691 36.4753 144.825 36.5079C144.952 36.5389 145.115 36.5656 145.305 36.587C145.684 36.6296 146.155 36.6493 146.627 36.643C147.1 36.6368 147.567 36.6047 147.938 36.5454C148.125 36.5157 148.282 36.4798 148.402 36.439C148.529 36.3958 148.588 36.3554 148.608 36.3326L148.608 36.3326L148.608 36.3318C148.765 36.1487 148.845 35.951 148.845 35.7456C148.845 35.4128 148.624 35.0828 148.208 34.827C147.794 34.573 147.211 34.41 146.559 34.41C145.906 34.41 145.324 34.5722 144.91 34.8258C144.522 35.0638 144.303 35.3667 144.275 35.6779Z" stroke="#DB4200" stroke-width="0.343845"/>
<path d="M148.954 35.7498C148.954 34.9162 147.868 34.2389 146.527 34.2389C145.186 34.2389 144.099 34.9162 144.099 35.7498" stroke="#DB4200" stroke-width="0.918067" stroke-linecap="round" stroke-linejoin="round"/>
<path d="M145.69 35.2013C145.681 35.3332 145.775 35.5007 146.025 35.656C146.268 35.8067 146.622 35.9194 147.029 35.9477C147.435 35.976 147.801 35.9134 148.062 35.7978C148.331 35.6785 148.446 35.5256 148.455 35.3937C148.464 35.2617 148.371 35.0943 148.121 34.939C147.878 34.7882 147.524 34.6756 147.117 34.6473C146.71 34.619 146.345 34.6815 146.084 34.7972C145.815 34.9164 145.699 35.0693 145.69 35.2013Z" fill="#DB4200" stroke="#DB4200" stroke-width="0.343845"/>
<path d="M138.101 35.6778L138.102 35.6782V35.7489C138.102 35.9134 138.117 36.0243 138.159 36.1192C138.201 36.2126 138.275 36.3073 138.421 36.4233C138.446 36.443 138.517 36.4752 138.651 36.5078C138.778 36.5388 138.941 36.5655 139.13 36.5869C139.509 36.6295 139.981 36.6492 140.453 36.643C140.925 36.6367 141.393 36.6046 141.764 36.5453C141.95 36.5156 142.108 36.4798 142.228 36.4389C142.355 36.3957 142.414 36.3553 142.434 36.3325L142.434 36.3325L142.434 36.3317C142.591 36.1486 142.671 35.9509 142.671 35.7455C142.671 35.4127 142.45 35.0827 142.033 34.8269C141.62 34.573 141.037 34.4099 140.385 34.4099C139.732 34.4099 139.15 34.5722 138.736 34.8257C138.348 35.0637 138.129 35.3666 138.101 35.6778Z" stroke="#DB4200" stroke-width="0.343845"/>
<path d="M142.78 35.7498C142.78 34.9162 141.693 34.2389 140.352 34.2389C139.011 34.2389 137.925 34.9162 137.925 35.7498" stroke="#DB4200" stroke-width="0.918067" stroke-linecap="round" stroke-linejoin="round"/>
<path d="M139.515 35.1951C139.506 35.325 139.598 35.4911 139.849 35.6458C140.092 35.7957 140.446 35.9078 140.853 35.9362C141.26 35.9645 141.626 35.9025 141.887 35.7876C142.156 35.6691 142.271 35.5174 142.279 35.3875C142.288 35.2576 142.196 35.0915 141.945 34.9368C141.702 34.7869 141.348 34.6748 140.941 34.6465C140.534 34.6181 140.168 34.6801 139.907 34.795C139.638 34.9135 139.523 35.0652 139.515 35.1951Z" fill="#DB4200" stroke="#DB4200" stroke-width="0.343845"/>
<path d="M49.9163 76.5497C47.0809 76.5497 44.7134 75.4248 44.399 72.7377C44.3892 72.6546 44.4492 72.5793 44.5321 72.5687L47.4413 72.1962C47.5324 72.1845 47.6133 72.2543 47.6213 72.3459C47.738 73.6844 48.6846 74.2892 49.9891 74.2892C51.3722 74.2892 52.0759 73.7787 52.0759 72.8794C52.0759 72.0772 51.1538 71.7855 49.2368 71.3237C46.9073 70.7646 44.7719 70.0354 44.7719 67.5318C44.7719 64.858 47.1257 63.8128 49.7464 63.8128C52.3677 63.8128 54.6145 64.6802 54.9932 67.3357C55.0049 67.4176 54.9483 67.4941 54.8668 67.508L52.0541 67.9885C51.9623 68.0042 51.8778 67.9357 51.868 67.8429C51.7378 66.6045 50.9549 66.0491 49.7949 66.0491C48.8 66.0491 47.975 66.4137 47.975 67.2644C47.975 68.0909 48.8486 68.3826 50.4744 68.7472C52.634 69.2333 55.3275 69.8167 55.3275 72.7092C55.3275 75.626 52.7554 76.5497 49.9163 76.5497Z" fill="#DB4200"/>
<path d="M42.4989 64.9702C43.4695 65.9425 43.5908 67.2551 43.5908 68.835V76.2876C43.5908 76.3737 43.5211 76.4436 43.4351 76.4436H40.3251C40.2391 76.4436 40.1693 76.3737 40.1693 76.2876V69.1267C40.1693 68.0086 40.0723 67.4252 39.5384 66.9148C39.1017 66.5015 38.6891 66.4286 37.9612 66.4286C36.9177 66.4286 35.7045 67.1335 35.7045 69.6371V76.2876C35.7045 76.3737 35.6347 76.4436 35.5487 76.4436H32.463C32.377 76.4436 32.3073 76.3737 32.3073 76.2876V64.2755C32.3073 64.1893 32.377 64.1195 32.463 64.1195H35.5244C35.6105 64.1195 35.6802 64.1893 35.6802 64.2755V65.5982C35.6802 65.6729 35.791 65.6966 35.8258 65.6304C36.5085 64.3312 37.8063 63.8278 39.2715 63.8278C40.8245 63.8278 41.7224 64.1924 42.4989 64.9702Z" fill="#DB4200"/>
<path d="M29.6189 65.3759C30.797 66.576 31.3905 68.3999 31.4404 70.7098C31.4423 70.7947 31.3752 70.8651 31.2904 70.8678L22.7237 71.139C22.637 71.1418 22.569 71.2154 22.575 71.302C22.7078 73.2363 23.7055 74.1965 25.4769 74.1404C26.9717 74.093 27.7261 73.4151 27.9609 72.2299C27.9765 72.1515 28.0463 72.0945 28.1261 72.099L31.1098 72.2678C31.2059 72.2732 31.2741 72.3644 31.2505 72.4579C30.5873 75.0837 28.6125 76.4487 25.5528 76.5456C23.661 76.6055 22.1381 76.0457 21.0881 75.0819C19.8878 73.9769 19.2552 72.3919 19.1908 70.3511C19.1294 68.4075 19.6109 66.7385 20.7633 65.5591C21.7975 64.4806 23.235 63.8757 25.1268 63.8158C27.0429 63.7552 28.5658 64.3149 29.6189 65.3759ZM25.2012 66.1724C24.2068 66.2039 23.5126 66.5177 23.071 67.1397C22.7742 67.5479 22.6014 68.0531 22.5337 68.6374C22.5229 68.7298 22.5979 68.8084 22.6907 68.8054L27.7539 68.6451C27.8458 68.6422 27.9154 68.5605 27.9011 68.4695C27.7947 67.7941 27.5803 67.229 27.1637 66.8155C26.6876 66.3442 26.0743 66.1448 25.2012 66.1724Z" fill="#DB4200"/>
<path fill-rule="evenodd" clip-rule="evenodd" d="M3.54046 69.5663L8.19705 61.9032C8.2511 61.8143 8.15382 61.7105 8.06146 61.7587C7.24741 62.1831 5.0509 63.4112 3.32641 65.1337C1.43657 67.0214 2.96384 69.0925 3.37379 69.5793C3.41909 69.6331 3.50394 69.6264 3.54046 69.5663ZM8.08194 78.4489C8.14423 78.5436 8.02972 78.6546 7.93679 78.5895L4.04646 75.8661C1.59455 74.1496 0.465567 71.0849 1.24294 68.1968C1.30452 67.968 1.37059 67.7677 1.43265 67.5999C1.47113 67.4959 1.6241 67.5183 1.63181 67.629C1.6974 68.5694 2.37445 69.6445 2.86586 70.4248C2.95358 70.5641 3.03539 70.694 3.10674 70.8121C3.58435 71.6023 7.04184 76.8667 8.08194 78.4489ZM8.57685 78.4514L13.2334 70.7883C13.27 70.7282 13.3548 70.7215 13.4001 70.7753C13.8101 71.2621 15.3373 73.3332 13.4475 75.2209C11.723 76.9434 9.52649 78.1715 8.71244 78.596C8.62009 78.6441 8.52279 78.5404 8.57685 78.4514ZM8.69159 61.9066C8.6293 61.8118 8.74381 61.7009 8.83674 61.7659L12.7271 64.4894C15.179 66.2058 16.308 69.2705 15.5306 72.1587C15.469 72.3875 15.4029 72.5877 15.3409 72.7555C15.3024 72.8596 15.1494 72.8371 15.1417 72.7265C15.0761 71.7861 14.3991 70.711 13.9077 69.9306C13.8199 69.7913 13.7381 69.6614 13.6668 69.5434C13.1892 68.7531 9.73169 63.4888 8.69159 61.9066Z" fill="#DB4200"/>
<rect x="59.9552" y="61.7465" width="1.83839" height="16.8625" fill="#DB4200"/>
<path d="M67.2222 67.4114C67.2222 65.139 68.5385 64.0027 71.1711 64.0027C71.8665 64.0027 72.4812 64.0462 73.0151 64.1331C73.5615 64.2076 73.9341 64.2821 74.1327 64.3566L74.4121 64.4684V68.1937H72.4377V69.0133H74.4121V74.0425H73.071V78.1777H67.5389V74.0425H66.8124V69.4417L67.6506 69.0133C67.365 68.6035 67.2222 68.0696 67.2222 67.4114ZM81.0434 78.1777H75.4926V67.1693H80.168L80.3542 68.529C80.3791 68.4918 80.4101 68.4421 80.4474 68.38C80.4846 68.3179 80.5902 68.2124 80.764 68.0634C80.9379 67.9019 81.1365 67.7591 81.3601 67.6349C81.981 67.3245 82.7633 67.1693 83.707 67.1693V73.0926L81.0434 72.8318V78.1777ZM84.3876 65.3066H94.8186V70.727H90.7952V71.4721H94.8186V72.6455H90.7952V73.3906H94.9863V78.1777H84.3876V65.3066ZM96.0476 65.3066H101.747L102.921 69.1437V65.3066H108.658V78.1777H102.921L101.934 74.4151V78.1777H96.0476V65.3066ZM116.059 65.1203C117.077 65.1203 118.027 65.1886 118.909 65.3252C119.803 65.4494 120.443 65.5798 120.828 65.7164L121.386 65.9213V71.2485C120.381 70.7891 119.002 70.5593 117.251 70.5593V71.0436C118.866 71.1678 120.027 71.4907 120.735 72.0122C121.442 72.5338 121.796 73.3223 121.796 74.3778C121.796 75.6445 121.281 76.6255 120.25 77.3209C119.22 78.0163 117.63 78.364 115.482 78.364C114.252 78.364 113.166 78.2957 112.222 78.1591C111.278 78.01 110.645 77.8672 110.322 77.7306L109.819 77.5071V72.8691C109.931 72.9187 110.099 72.987 110.322 73.074C110.546 73.1609 111.042 73.2726 111.812 73.4092C112.595 73.5458 113.433 73.6141 114.327 73.6141V73.1671C112.812 73.0553 111.67 72.7325 110.9 72.1985C110.13 71.6645 109.745 70.7332 109.745 69.4045C109.745 68.0758 110.273 67.0327 111.328 66.2752C112.384 65.5053 113.961 65.1203 116.059 65.1203ZM134.228 78.1777H129.534L129.348 76.8179C129.298 76.9545 129.192 77.1222 129.031 77.3209C128.882 77.5195 128.721 77.6872 128.547 77.8238C128.087 78.1839 127.497 78.364 126.777 78.364C125.473 78.364 124.455 77.8672 123.722 76.8738C122.99 75.8804 122.623 74.4958 122.623 72.72C122.623 70.9319 122.996 69.5287 123.741 68.5104C124.486 67.4921 125.504 66.983 126.796 66.983C127.193 66.983 127.547 67.0327 127.858 67.132C128.168 67.2189 128.379 67.3059 128.491 67.3928L128.658 67.5232V64.3008H134.228V78.1777ZM127.895 72.5338V74.0984C127.895 74.2599 127.938 74.3902 128.025 74.4896C128.125 74.5889 128.249 74.6386 128.398 74.6386C128.559 74.6386 128.69 74.5889 128.789 74.4896C128.901 74.3902 128.957 74.2599 128.957 74.0984V72.5338C128.957 72.3848 128.901 72.2606 128.789 72.1612C128.69 72.0495 128.565 71.9936 128.416 71.9936C128.267 71.9936 128.143 72.0495 128.044 72.1612C127.944 72.2606 127.895 72.3848 127.895 72.5338ZM146.236 71.1368L146.143 73.4279L146.608 73.4092V77.6375C146.385 77.8238 146 77.9914 145.454 78.1404C144.907 78.2894 144.392 78.364 143.908 78.364C143.423 78.364 143.038 78.3205 142.753 78.2336C142.467 78.1466 142.256 78.0535 142.119 77.9542C141.983 77.8424 141.877 77.7182 141.803 77.5816C141.691 77.3829 141.635 77.2153 141.635 77.0787C140.952 77.9355 139.866 78.364 138.375 78.364C136.326 78.364 135.302 77.4947 135.302 75.7562C135.302 74.7131 135.699 73.9743 136.494 73.5396C137.289 73.0926 138.68 72.8256 140.666 72.7387C140.666 72.3041 140.188 72.0867 139.232 72.0867C138.586 72.0867 137.966 72.1675 137.37 72.3289C136.786 72.4903 136.364 72.6518 136.103 72.8132L135.693 73.0553V68.1565C135.805 68.0696 135.973 67.964 136.196 67.8398C136.42 67.7032 136.947 67.5294 137.779 67.3183C138.611 67.0948 139.524 66.983 140.517 66.983C142.504 66.983 143.951 67.3183 144.858 67.9889C145.776 68.6594 146.236 69.7087 146.236 71.1368ZM140.965 74.0984V73.3534L139.903 73.6514V74.0984C139.903 74.2599 139.952 74.3902 140.052 74.4896C140.164 74.5889 140.294 74.6386 140.443 74.6386C140.604 74.6386 140.729 74.5889 140.815 74.4896C140.915 74.3902 140.965 74.2599 140.965 74.0984ZM152.655 73.8377H153.139L153.474 67.1693H158.653L157.013 79.91H151.127L151.537 77.9914C150.469 77.9914 149.687 77.83 149.19 77.5071C148.706 77.1718 148.402 76.6068 148.277 75.8121L146.974 67.1693H152.282L152.655 73.8377Z" fill="#DB4200"/>
</svg>
