<svg width="65" height="104" viewBox="0 0 65 104" fill="none" xmlns="http://www.w3.org/2000/svg">
<path fill-rule="evenodd" clip-rule="evenodd" d="M41.9607 3.27998C40.9992 1.33646 38.9961 0 36.6809 0C34.2357 0 32.1387 1.49073 31.2492 3.61293C29.8904 2.45835 28.1303 1.76176 26.2075 1.76176C21.9051 1.76176 18.4172 5.2496 18.4172 9.55208C18.4172 10.7867 18.7044 11.9543 19.2157 12.9916C15.4825 14.8327 12.0968 17.1056 9.55215 19.4996C-3.65189 31.9224 -1.50261 76.4074 5.98427 87.0347C13.4711 97.6621 61.8648 109.769 64.4482 100.266C65.311 97.0924 62.6127 92.9921 59.0251 87.5405C51.8703 76.6683 41.1789 60.4217 48.1461 35.4332C50.3426 27.555 50.4972 21.7351 49.2482 17.5714C52.3216 16.43 54.5116 13.4708 54.5116 10.0001C54.5116 5.54098 50.8967 1.92615 46.4376 1.92615C44.7816 1.92615 43.242 2.42473 41.9607 3.27998Z" fill="#FFEA2C"/>
<path fill-rule="evenodd" clip-rule="evenodd" d="M41.9607 3.27998C40.9992 1.33646 38.9961 0 36.6809 0C34.2357 0 32.1387 1.49073 31.2492 3.61293C29.8904 2.45835 28.1303 1.76176 26.2075 1.76176C21.9051 1.76176 18.4172 5.2496 18.4172 9.55208C18.4172 10.7867 18.7044 11.9543 19.2157 12.9916C15.4825 14.8327 12.0968 17.1056 9.55215 19.4996C-3.65189 31.9224 -1.50261 76.4074 5.98427 87.0347C13.4711 97.6621 61.8648 109.769 64.4482 100.266C65.311 97.0924 62.6127 92.9921 59.0251 87.5405C51.8703 76.6683 41.1789 60.4217 48.1461 35.4332C50.3426 27.555 50.4972 21.7351 49.2482 17.5714C52.3216 16.43 54.5116 13.4708 54.5116 10.0001C54.5116 5.54098 50.8967 1.92615 46.4376 1.92615C44.7816 1.92615 43.242 2.42473 41.9607 3.27998Z" fill="url(#paint0_linear_39_2547)"/>
<ellipse cx="35.7947" cy="30.9618" rx="0.832025" ry="1.42491" fill="#2A2D74"/>
<ellipse cx="40.6962" cy="30.9618" rx="0.832025" ry="1.42491" fill="#2A2D74"/>
<defs>
<linearGradient id="paint0_linear_39_2547" x1="15.6579" y1="4.61359" x2="54.8407" y2="103.77" gradientUnits="userSpaceOnUse">
<stop stop-color="#FF9737"/>
<stop offset="1" stop-color="#FF9737" stop-opacity="0"/>
</linearGradient>
</defs>
</svg>
