<svg width="46" height="51" viewBox="0 0 46 51" fill="none" xmlns="http://www.w3.org/2000/svg">
<path fill-rule="evenodd" clip-rule="evenodd" d="M35.8811 16.3576C40.271 13.9087 44.5648 9.38653 45.9011 1.67967C45.2544 4.44389 38.5161 11.7989 29.4327 4.31804C29.1917 4.04304 28.9322 3.75969 28.6513 3.46579C16.9005 -8.82783 8.09749 14.4356 2.6705 28.7773C2.29029 29.7821 1.92666 30.743 1.57974 31.6449C-4.60958 48.954 8.55365 50.4175 20.8454 50.156C33.1371 49.8945 43.4316 45.5915 43.4312 41.0129C43.4306 34.3638 38.6698 22.854 35.8811 16.3576Z" fill="#1FEBF2"/>
<path fill-rule="evenodd" clip-rule="evenodd" d="M35.8811 16.3576C40.271 13.9087 44.5648 9.38653 45.9011 1.67967C45.2544 4.44389 38.5161 11.7989 29.4327 4.31804C29.1917 4.04304 28.9322 3.75969 28.6513 3.46579C16.9005 -8.82783 8.09749 14.4356 2.6705 28.7773C2.29029 29.7821 1.92666 30.743 1.57974 31.6449C-4.60958 48.954 8.55365 50.4175 20.8454 50.156C33.1371 49.8945 43.4316 45.5915 43.4312 41.0129C43.4306 34.3638 38.6698 22.854 35.8811 16.3576Z" fill="url(#paint0_linear_39_2567)"/>
<path d="M9.19689 42.0988C9.19689 42.4556 9.33865 42.7978 9.59097 43.0501C9.84329 43.3025 10.1855 43.4442 10.5424 43.4442C10.8992 43.4442 11.2414 43.3025 11.4937 43.0501C11.7461 42.7978 11.8878 42.4556 11.8878 42.0988L10.5424 42.0988H9.19689Z" fill="#2A2D74"/>
<path d="M4.79815 42.0985C4.79815 42.4554 4.9399 42.7976 5.19223 43.0499C5.44455 43.3022 5.78677 43.444 6.14361 43.444C6.50045 43.444 6.84267 43.3022 7.095 43.0499C7.34732 42.7976 7.48907 42.4554 7.48907 42.0985L6.14361 42.0985H4.79815Z" fill="#2A2D74"/>
<defs>
<linearGradient id="paint0_linear_39_2567" x1="43.7674" y1="10.9689" x2="17.8419" y2="40.586" gradientUnits="userSpaceOnUse">
<stop stop-color="#386CEB"/>
<stop offset="1" stop-color="#87A8F8" stop-opacity="0"/>
</linearGradient>
</defs>
</svg>
