<svg width="112" height="49" viewBox="0 0 112 49" fill="none" xmlns="http://www.w3.org/2000/svg">
<g clip-path="url(#clip0_127_205)">
<path fill-rule="evenodd" clip-rule="evenodd" d="M94.6678 18.1301C97.9631 23.2379 99.9907 29.2597 100.285 35.7699L104.987 139.875C105.364 148.218 99.9395 155.719 91.8986 157.973L55.7688 168.104L16.3943 178.075C13.2064 178.883 10.5801 175.515 12.14 172.62L24.6352 149.429C25.9776 146.938 26.712 144.164 26.7786 141.335L29.2444 36.5378C29.6839 17.8594 44.5094 2.70993 63.1739 1.86682C71.1352 1.5072 78.603 3.79542 84.7249 7.953C92.9006 4.23722 98.7971 4.22502 104.996 10.9138C96.3155 12.2472 95.3511 15.6903 94.6683 18.1282C94.6681 18.1289 94.6679 18.1295 94.6678 18.1301Z" fill="#00DF8C"/>
<path fill-rule="evenodd" clip-rule="evenodd" d="M94.6678 18.1301C97.9631 23.2379 99.9907 29.2597 100.285 35.7699L104.987 139.875C105.364 148.218 99.9395 155.719 91.8986 157.973L55.7688 168.104L16.3943 178.075C13.2064 178.883 10.5801 175.515 12.14 172.62L24.6352 149.429C25.9776 146.938 26.712 144.164 26.7786 141.335L29.2444 36.5378C29.6839 17.8594 44.5094 2.70993 63.1739 1.86682C71.1352 1.5072 78.603 3.79542 84.7249 7.953C92.9006 4.23722 98.7971 4.22502 104.996 10.9138C96.3155 12.2472 95.3511 15.6903 94.6683 18.1282C94.6681 18.1289 94.6679 18.1295 94.6678 18.1301Z" fill="url(#paint0_linear_127_205)"/>
<ellipse cx="1.18142" cy="2.02328" rx="1.18142" ry="2.02328" transform="matrix(-0.998981 0.0451255 0.0451255 0.998981 83.8467 35.3511)" fill="#2A2D74"/>
<ellipse cx="1.18142" cy="2.02328" rx="1.18142" ry="2.02328" transform="matrix(-0.998981 0.0451255 0.0451255 0.998981 76.8907 35.6655)" fill="#2A2D74"/>
</g>
<defs>
<linearGradient id="paint0_linear_127_205" x1="31.737" y1="171.314" x2="93.2419" y2="13.3651" gradientUnits="userSpaceOnUse">
<stop stop-color="#1FEBF2"/>
<stop offset="1" stop-color="#1FEBF2" stop-opacity="0"/>
</linearGradient>
<clipPath id="clip0_127_205">
<rect width="112" height="49" fill="white"/>
</clipPath>
</defs>
</svg>
