<svg width="77" height="49" viewBox="0 0 77 49" fill="none" xmlns="http://www.w3.org/2000/svg">
<g clip-path="url(#clip0_150_154)">
<path fill-rule="evenodd" clip-rule="evenodd" d="M66.6678 18.1301C69.9631 23.2379 71.9907 29.2597 72.285 35.7699L76.987 139.875C77.364 148.218 71.9395 155.719 63.8986 157.973L27.7688 168.104L-11.6057 178.075C-14.7936 178.883 -17.4199 175.515 -15.86 172.62L-3.36476 149.429C-2.02236 146.938 -1.28796 144.164 -1.22136 141.335L1.24444 36.5378C1.68394 17.8594 16.5094 2.70995 35.1739 1.86684C43.1352 1.50722 50.603 3.79544 56.7249 7.95302C64.9006 4.23724 70.7971 4.22504 76.996 10.9138C68.3155 12.2472 67.3511 15.6903 66.6683 18.1282L66.6678 18.1301Z" fill="#00DF8C"/>
<path fill-rule="evenodd" clip-rule="evenodd" d="M66.6678 18.1301C69.9631 23.2379 71.9907 29.2597 72.285 35.7699L76.987 139.875C77.364 148.218 71.9395 155.719 63.8986 157.973L27.7688 168.104L-11.6057 178.075C-14.7936 178.883 -17.4199 175.515 -15.86 172.62L-3.36476 149.429C-2.02236 146.938 -1.28796 144.164 -1.22136 141.335L1.24444 36.5378C1.68394 17.8594 16.5094 2.70995 35.1739 1.86684C43.1352 1.50722 50.603 3.79544 56.7249 7.95302C64.9006 4.23724 70.7971 4.22504 76.996 10.9138C68.3155 12.2472 67.3511 15.6903 66.6683 18.1282L66.6678 18.1301Z" fill="url(#paint0_linear_150_154)"/>
<!-- <path d="M54.8491 38.9049C54.1973 38.9258 53.628 38.3009 53.5775 37.5092C53.5271 36.7174 54.0146 36.0587 54.6665 36.0378C55.3183 36.0169 55.8876 36.6418 55.938 37.4336C55.9884 38.2253 55.5009 38.884 54.8491 38.9049Z" fill="#2A2D74"/> -->
<!-- <path d="M47.8931 39.1279C47.2413 39.1488 46.672 38.5239 46.6216 37.7321C46.5712 36.9404 47.0587 36.2817 47.7105 36.2608C48.3623 36.2399 48.9316 36.8648 48.982 37.6565C49.0325 38.4482 48.5449 39.107 47.8931 39.1279Z" fill="#2A2D74"/> -->
</g>
<defs>
<linearGradient id="paint0_linear_150_154" x1="3.73704" y1="171.314" x2="65.2419" y2="13.3651" gradientUnits="userSpaceOnUse">
<stop stop-color="#1FEBF2"/>
<stop offset="1" stop-color="#1FEBF2" stop-opacity="0"/>
</linearGradient>
<clipPath id="clip0_150_154">
<rect width="77" height="49" fill="white"/>
</clipPath>
</defs>
</svg>
