<svg xmlns="http://www.w3.org/2000/svg" xmlns:xlink="http://www.w3.org/1999/xlink" viewBox="0 0 32 30"><path d="M 5.507 0.074 L 26.097 0.074 L 26.097 4.311 L 31.952 4.311 L 30.725 8.548 L 29.686 8.548 L 29.686 25.689 C 30.207 25.689 30.63 26.12 30.63 26.652 L 30.63 27.807 L 30.819 27.807 C 31.341 27.807 31.764 28.239 31.764 28.77 L 31.764 29.926 L 21.185 29.926 L 21.185 28.77 C 21.185 28.239 21.608 27.807 22.13 27.807 L 22.319 27.807 L 22.319 26.652 C 22.319 26.189 22.639 25.803 23.065 25.71 L 23.045 16.252 C 22.711 12.473 19.596 9.511 15.802 9.511 C 12.008 9.511 8.893 12.473 8.559 16.252 L 8.539 25.702 C 9.043 25.778 9.663 26.174 9.663 26.652 L 9.663 27.807 L 9.852 27.807 C 10.373 27.807 10.796 28.239 10.796 28.77 L 10.796 29.926 L 0.218 29.926 L 0.218 28.77 C 0.218 28.239 0.641 27.807 1.162 27.807 L 1.351 27.807 L 1.351 26.652 C 1.351 26.12 1.774 25.689 2.296 25.689 L 2.296 8.548 L 1.257 8.548 L 0.029 4.311 L 5.507 4.311 L 5.507 0.074 Z" fill="#fff"></path><path d="M 26.097 0.074 L 26.166 0.074 L 26.166 0.004 L 26.097 0.004 Z M 5.507 0.074 L 5.507 0.004 L 5.438 0.004 L 5.438 0.074 Z M 26.097 4.311 L 26.028 4.311 L 26.028 4.381 L 26.097 4.381 Z M 31.952 4.311 L 32.019 4.331 L 32.045 4.241 L 31.952 4.241 L 31.952 4.311 Z M 30.725 8.548 L 30.725 8.618 L 30.776 8.618 L 30.791 8.568 Z M 29.686 8.548 L 29.686 8.478 L 29.617 8.478 L 29.617 8.548 Z M 29.686 25.689 L 29.617 25.689 L 29.617 25.759 L 29.686 25.759 Z M 30.63 27.807 L 30.561 27.807 L 30.561 27.878 L 30.63 27.878 Z M 31.764 29.926 L 31.764 29.996 L 31.832 29.996 L 31.832 29.926 Z M 21.185 29.926 L 21.116 29.926 L 21.116 29.996 L 21.185 29.996 Z M 22.319 27.807 L 22.319 27.878 L 22.388 27.878 L 22.388 27.807 Z M 23.065 25.71 L 23.08 25.779 L 23.134 25.767 L 23.134 25.71 Z M 23.045 16.252 L 23.114 16.252 L 23.114 16.249 L 23.113 16.246 Z M 8.559 16.252 L 8.49 16.246 L 8.49 16.249 L 8.49 16.252 Z M 8.539 25.702 L 8.47 25.702 L 8.469 25.763 L 8.528 25.772 Z M 9.663 27.807 L 9.594 27.807 L 9.594 27.878 L 9.663 27.878 Z M 10.796 29.926 L 10.796 29.996 L 10.865 29.996 L 10.865 29.926 Z M 0.218 29.926 L 0.149 29.926 L 0.149 29.996 L 0.218 29.996 Z M 1.351 27.807 L 1.351 27.878 L 1.42 27.878 L 1.42 27.807 Z M 2.296 25.689 L 2.296 25.759 L 2.365 25.759 L 2.365 25.689 Z M 2.296 8.548 L 2.365 8.548 L 2.365 8.478 L 2.296 8.478 Z M 1.257 8.548 L 1.191 8.568 L 1.205 8.618 L 1.257 8.618 Z M 0.029 4.311 L 0.029 4.241 L -0.063 4.241 L -0.037 4.331 L 0.029 4.311 Z M 5.507 4.311 L 5.507 4.381 L 5.576 4.381 L 5.576 4.311 Z M 26.097 0.004 L 5.507 0.004 L 5.507 0.144 L 26.097 0.144 Z M 26.166 4.311 L 26.166 0.074 L 26.028 0.074 L 26.028 4.311 L 26.166 4.311 Z M 31.952 4.241 L 26.097 4.241 L 26.097 4.381 L 31.952 4.381 Z M 30.791 8.568 L 32.019 4.331 L 31.886 4.291 L 30.658 8.528 Z M 29.686 8.618 L 30.725 8.618 L 30.725 8.478 L 29.686 8.478 Z M 29.755 25.689 L 29.755 8.548 L 29.617 8.548 L 29.617 25.689 Z M 30.699 26.652 C 30.699 26.081 30.245 25.619 29.686 25.619 L 29.686 25.759 C 30.169 25.759 30.561 26.159 30.561 26.652 Z M 30.699 27.807 L 30.699 26.652 L 30.561 26.652 L 30.561 27.807 Z M 30.819 27.737 L 30.63 27.737 L 30.63 27.878 L 30.819 27.878 Z M 31.832 28.77 C 31.832 28.2 31.379 27.737 30.819 27.737 L 30.819 27.878 C 31.303 27.878 31.695 28.277 31.695 28.77 Z M 31.832 29.926 L 31.832 28.77 L 31.695 28.77 L 31.695 29.926 Z M 26.097 29.996 L 31.764 29.996 L 31.764 29.856 L 26.097 29.856 Z M 23.074 29.996 L 26.097 29.996 L 26.097 29.856 L 23.074 29.856 Z M 21.185 29.996 L 23.074 29.996 L 23.074 29.856 L 21.185 29.856 Z M 21.116 28.77 L 21.116 29.926 L 21.254 29.926 L 21.254 28.77 Z M 22.13 27.737 C 21.57 27.737 21.116 28.2 21.116 28.77 L 21.254 28.77 C 21.254 28.277 21.646 27.878 22.13 27.878 Z M 22.319 27.737 L 22.13 27.737 L 22.13 27.878 L 22.319 27.878 Z M 22.25 26.652 L 22.25 27.807 L 22.388 27.807 L 22.388 26.652 Z M 23.051 25.641 C 22.593 25.741 22.25 26.155 22.25 26.652 L 22.388 26.652 C 22.388 26.223 22.684 25.865 23.08 25.779 Z M 22.976 16.252 L 22.996 25.71 L 23.134 25.71 L 23.114 16.252 Z M 15.802 9.581 C 19.559 9.581 22.645 12.515 22.976 16.258 L 23.113 16.245 C 22.776 12.43 19.632 9.441 15.802 9.441 Z M 8.628 16.258 C 8.959 12.515 12.044 9.581 15.802 9.581 L 15.802 9.441 C 11.972 9.441 8.828 12.43 8.49 16.245 Z M 8.608 25.702 L 8.628 16.252 L 8.49 16.252 L 8.47 25.702 Z M 9.732 26.652 C 9.732 26.381 9.557 26.145 9.331 25.97 C 9.104 25.795 8.812 25.672 8.549 25.633 L 8.528 25.772 C 8.769 25.808 9.039 25.921 9.248 26.082 C 9.459 26.245 9.594 26.445 9.594 26.652 Z M 9.732 27.807 L 9.732 26.652 L 9.594 26.652 L 9.594 27.807 Z M 9.852 27.737 L 9.663 27.737 L 9.663 27.878 L 9.852 27.878 Z M 10.865 28.77 C 10.865 28.2 10.411 27.737 9.852 27.737 L 9.852 27.878 C 10.335 27.878 10.727 28.277 10.727 28.77 Z M 10.865 29.926 L 10.865 28.77 L 10.727 28.77 L 10.727 29.926 Z M 8.529 29.996 L 10.796 29.996 L 10.796 29.856 L 8.529 29.856 Z M 8.372 29.996 L 8.529 29.996 L 8.529 29.856 L 8.372 29.856 Z M 5.507 29.996 L 8.372 29.996 L 8.372 29.856 L 5.507 29.856 Z M 0.218 29.996 L 5.507 29.996 L 5.507 29.856 L 0.218 29.856 Z M 0.149 28.77 L 0.149 29.926 L 0.287 29.926 L 0.287 28.77 Z M 1.162 27.737 C 0.603 27.737 0.149 28.2 0.149 28.77 L 0.287 28.77 C 0.287 28.277 0.679 27.878 1.162 27.878 Z M 1.351 27.737 L 1.162 27.737 L 1.162 27.878 L 1.351 27.878 Z M 1.282 26.652 L 1.282 27.807 L 1.42 27.807 L 1.42 26.652 Z M 2.296 25.619 C 1.736 25.619 1.282 26.081 1.282 26.652 L 1.42 26.652 C 1.42 26.159 1.812 25.759 2.296 25.759 Z M 2.227 8.548 L 2.227 25.689 L 2.365 25.689 L 2.365 8.548 Z M 1.257 8.618 L 2.296 8.618 L 2.296 8.478 L 1.257 8.478 Z M -0.037 4.331 L 1.191 8.568 L 1.323 8.528 L 0.095 4.291 Z M 5.507 4.241 L 0.029 4.241 L 0.029 4.381 L 5.507 4.381 L 5.507 4.241 Z M 5.438 0.074 L 5.438 4.311 L 5.576 4.311 L 5.576 0.074 Z" fill="rgb(255,255,255)"></path></svg>