<svg width="299" height="193" viewBox="0 0 299 193" fill="none" xmlns="http://www.w3.org/2000/svg">
<path fill-rule="evenodd" clip-rule="evenodd" d="M43.9607 6.27998C42.9992 4.33646 40.9961 3 38.6809 3C36.2357 3 34.1387 4.49073 33.2492 6.61293C31.8904 5.45835 30.1303 4.76176 28.2075 4.76176C23.9051 4.76176 20.4172 8.2496 20.4172 12.5521C20.4172 13.7867 20.7044 14.9543 21.2157 15.9916C17.4825 17.8327 14.0968 20.1056 11.5521 22.4996C-1.65189 34.9224 0.497391 79.4074 7.98427 90.0347C15.4711 100.662 63.8648 112.769 66.4482 103.266C67.311 100.092 64.6127 95.9921 61.0251 90.5405C53.8703 79.6683 43.1789 63.4217 50.1461 38.4332C52.3426 30.555 52.4972 24.7351 51.2482 20.5714C54.3216 19.43 56.5116 16.4708 56.5116 13.0001C56.5116 8.54098 52.8967 4.92615 48.4376 4.92615C46.7816 4.92615 45.242 5.42473 43.9607 6.27998Z" fill="#FFEA2C"/>
<path fill-rule="evenodd" clip-rule="evenodd" d="M43.9607 6.27998C42.9992 4.33646 40.9961 3 38.6809 3C36.2357 3 34.1387 4.49073 33.2492 6.61293C31.8904 5.45835 30.1303 4.76176 28.2075 4.76176C23.9051 4.76176 20.4172 8.2496 20.4172 12.5521C20.4172 13.7867 20.7044 14.9543 21.2157 15.9916C17.4825 17.8327 14.0968 20.1056 11.5521 22.4996C-1.65189 34.9224 0.497391 79.4074 7.98427 90.0347C15.4711 100.662 63.8648 112.769 66.4482 103.266C67.311 100.092 64.6127 95.9921 61.0251 90.5405C53.8703 79.6683 43.1789 63.4217 50.1461 38.4332C52.3426 30.555 52.4972 24.7351 51.2482 20.5714C54.3216 19.43 56.5116 16.4708 56.5116 13.0001C56.5116 8.54098 52.8967 4.92615 48.4376 4.92615C46.7816 4.92615 45.242 5.42473 43.9607 6.27998Z" fill="url(#paint0_linear_39_2994)"/>
<ellipse cx="37.7947" cy="33.9618" rx="0.832025" ry="1.42491" fill="#2A2D74"/>
<ellipse cx="42.6962" cy="33.9618" rx="0.832025" ry="1.42491" fill="#2A2D74"/>
<path d="M239.344 139.378C250.852 149.73 220.243 163.3 223.259 168.215C226.275 173.13 281.377 164.662 288.778 158.46C296.179 152.257 305.728 121.392 279.871 118.139C254.014 114.887 227.835 129.026 239.344 139.378Z" fill="#FFA326"/>
<path d="M239.344 139.378C250.852 149.73 220.243 163.3 223.259 168.215C226.275 173.13 281.377 164.662 288.778 158.46C296.179 152.257 305.728 121.392 279.871 118.139C254.014 114.887 227.835 129.026 239.344 139.378Z" fill="url(#paint1_linear_39_2994)"/>
<path d="M251.942 134.768C251.125 134.822 250.473 135.343 250.442 134.866C250.41 134.39 251.044 133.579 251.86 133.526C252.677 133.472 253.427 134.192 253.458 134.669C253.49 135.145 252.758 134.715 251.942 134.768Z" fill="#2A2D74"/>
<path d="M257.263 134.42C256.447 134.473 255.795 134.995 255.763 134.518C255.732 134.041 256.366 133.231 257.182 133.178C257.998 133.124 258.749 133.844 258.78 134.32C258.811 134.797 258.08 134.366 257.263 134.42Z" fill="#2A2D74"/>
<path d="M225.847 89.5377C241.537 84.2053 246.164 78.8726 257.034 89.5375C267.904 100.202 267.76 113.189 268.975 96.8211C270.413 77.4415 283.908 72.7098 287.915 57.4358C291.922 42.1617 285.358 38.8583 259.373 38.8583C233.388 38.8583 231.012 -19.268 231.012 6.66219C231.012 32.5924 210.157 94.8702 225.847 89.5377Z" fill="#E671F8"/>
<path d="M225.847 89.5377C241.537 84.2053 246.164 78.8726 257.034 89.5375C267.904 100.202 267.76 113.189 268.975 96.8211C270.413 77.4415 283.908 72.7098 287.915 57.4358C291.922 42.1617 285.358 38.8583 259.373 38.8583C233.388 38.8583 231.012 -19.268 231.012 6.66219C231.012 32.5924 210.157 94.8702 225.847 89.5377Z" fill="url(#paint2_linear_39_2994)"/>
<path d="M249.606 54.313C249.606 55.2286 250.039 55.9709 250.574 55.9709C251.108 55.9709 251.542 55.2286 251.542 54.313C251.542 53.3974 251.108 54.3128 250.574 54.3128C250.039 54.3128 249.606 53.3974 249.606 54.313Z" fill="#2A2D74"/>
<path d="M245.937 54.3737C245.937 55.2893 246.371 56.0315 246.905 56.0315C247.44 56.0315 247.873 55.2893 247.873 54.3737C247.873 53.4581 247.44 54.3735 246.905 54.3735C246.371 54.3735 245.937 53.4581 245.937 54.3737Z" fill="#2A2D74"/>
<path d="M67.5809 161.731C60.1445 175.125 63.7536 176.788 61.1567 182.839C58.5598 188.89 59.6585 143.57 39.9461 141.215C20.2338 138.861 52.6696 119.834 59.4049 114.458C61.1004 113.105 54.6463 120.426 56.4342 123.579C61.7486 132.952 75.0174 148.338 67.5809 161.731Z" fill="#B336F2"/>
<path d="M67.5809 161.731C60.1445 175.125 63.7536 176.788 61.1567 182.839C58.5598 188.89 59.6585 143.57 39.9461 141.215C20.2338 138.861 52.6696 119.834 59.4049 114.458C61.1004 113.105 54.6463 120.426 56.4342 123.579C61.7486 132.952 75.0174 148.338 67.5809 161.731Z" fill="url(#paint3_linear_39_2994)"/>
<ellipse cx="0.77665" cy="1.33008" rx="0.77665" ry="1.33008" transform="matrix(-0.99684 0.079439 0.079439 0.99684 41.9791 133.851)" fill="#2A2D74"/>
<ellipse cx="0.77665" cy="1.33008" rx="0.77665" ry="1.33008" transform="matrix(-0.99684 0.079439 0.079439 0.99684 38.8145 134.103)" fill="#2A2D74"/>
<path fill-rule="evenodd" clip-rule="evenodd" d="M102.881 20.3576C107.271 17.9087 111.565 13.3865 112.901 5.67967C112.254 8.44389 105.516 15.7989 96.4327 8.31804C96.1917 8.04304 95.9322 7.75969 95.6513 7.46579C83.9005 -4.82783 75.0975 18.4356 69.6705 32.7773C69.2903 33.7821 68.9267 34.743 68.5797 35.6449C62.3904 52.954 75.5536 54.4175 87.8454 54.156C100.137 53.8945 110.432 49.5915 110.431 45.0129C110.431 38.3638 105.67 26.854 102.881 20.3576Z" fill="#1FEBF2"/>
<path fill-rule="evenodd" clip-rule="evenodd" d="M102.881 20.3576C107.271 17.9087 111.565 13.3865 112.901 5.67967C112.254 8.44389 105.516 15.7989 96.4327 8.31804C96.1917 8.04304 95.9322 7.75969 95.6513 7.46579C83.9005 -4.82783 75.0975 18.4356 69.6705 32.7773C69.2903 33.7821 68.9267 34.743 68.5797 35.6449C62.3904 52.954 75.5536 54.4175 87.8454 54.156C100.137 53.8945 110.432 49.5915 110.431 45.0129C110.431 38.3638 105.67 26.854 102.881 20.3576Z" fill="url(#paint4_linear_39_2994)"/>
<path d="M76.1969 46.0988C76.1969 46.4556 76.3386 46.7978 76.591 47.0501C76.8433 47.3025 77.1855 47.4442 77.5424 47.4442C77.8992 47.4442 78.2414 47.3025 78.4937 47.0501C78.7461 46.7978 78.8878 46.4556 78.8878 46.0988L77.5424 46.0988H76.1969Z" fill="#2A2D74"/>
<path d="M71.7981 46.0985C71.7981 46.4554 71.9399 46.7976 72.1922 47.0499C72.4445 47.3022 72.7868 47.444 73.1436 47.444C73.5005 47.444 73.8427 47.3022 74.095 47.0499C74.3473 46.7976 74.4891 46.4554 74.4891 46.0985L73.1436 46.0985H71.7981Z" fill="#2A2D74"/>
<path fill-rule="evenodd" clip-rule="evenodd" d="M15.3139 173.163C14.4849 179.284 10.8225 183.985 8.33937 187.173C6.10799 190.038 4.82895 191.68 7.41415 192.03C12.8762 192.77 29.7357 175.082 31.3097 163.461C32.1895 156.966 31.4898 151.578 29.7475 147.96C31.4095 149.314 33.8953 150.14 36.4786 147.742C35.4178 148.7 32.4072 149.373 28.0273 145.325C27.7593 145.025 27.4792 144.752 27.1877 144.507C27.132 144.45 27.076 144.392 27.0199 144.334L27.0635 144.405C26.1266 143.651 25.0763 143.179 23.9403 143.025C21.322 142.671 12.3827 142.66 8.51897 151.854C8.51018 151.875 8.50146 151.896 8.49283 151.917C6.78925 152.991 5.36837 152.882 4.60253 152.491C5.92729 153.191 7.08407 153.333 8.07268 153.131C6.73025 157.949 9.49705 161.895 11.9975 165.46C13.9017 168.176 15.6515 170.671 15.3139 173.163ZM4.53906 152.457C4.56026 152.469 4.58142 152.48 4.60253 152.491C4.58085 152.48 4.55969 152.469 4.53906 152.457ZM36.5311 147.693C36.5142 147.709 36.4967 147.726 36.4786 147.742C36.4961 147.726 36.5136 147.71 36.5311 147.693Z" fill="#FF3838"/>
<path fill-rule="evenodd" clip-rule="evenodd" d="M15.3139 173.163C14.4849 179.284 10.8225 183.985 8.33937 187.173C6.10799 190.038 4.82895 191.68 7.41415 192.03C12.8762 192.77 29.7357 175.082 31.3097 163.461C32.1895 156.966 31.4898 151.578 29.7475 147.96C31.4095 149.314 33.8953 150.14 36.4786 147.742C35.4178 148.7 32.4072 149.373 28.0273 145.325C27.7593 145.025 27.4792 144.752 27.1877 144.507C27.132 144.45 27.076 144.392 27.0199 144.334L27.0635 144.405C26.1266 143.651 25.0763 143.179 23.9403 143.025C21.322 142.671 12.3827 142.66 8.51897 151.854C8.51018 151.875 8.50146 151.896 8.49283 151.917C6.78925 152.991 5.36837 152.882 4.60253 152.491C5.92729 153.191 7.08407 153.333 8.07268 153.131C6.73025 157.949 9.49705 161.895 11.9975 165.46C13.9017 168.176 15.6515 170.671 15.3139 173.163ZM4.53906 152.457C4.56026 152.469 4.58142 152.48 4.60253 152.491C4.58085 152.48 4.55969 152.469 4.53906 152.457ZM36.5311 147.693C36.5142 147.709 36.4967 147.726 36.4786 147.742C36.4961 147.726 36.5136 147.71 36.5311 147.693Z" fill="url(#paint5_linear_39_2994)" fill-opacity="0.9"/>
<ellipse cx="22.4258" cy="155.841" rx="1.1341" ry="1.94225" transform="rotate(-7.50539 22.4258 155.841)" fill="#2A2D74"/>
<ellipse cx="26.3777" cy="155.32" rx="1.1341" ry="1.94225" transform="rotate(-7.50539 26.3777 155.32)" fill="#2A2D74"/>
<defs>
<linearGradient id="paint0_linear_39_2994" x1="17.6579" y1="7.61359" x2="56.8407" y2="106.77" gradientUnits="userSpaceOnUse">
<stop stop-color="#FF9737"/>
<stop offset="1" stop-color="#FF9737" stop-opacity="0"/>
</linearGradient>
<linearGradient id="paint1_linear_39_2994" x1="294.145" y1="123.971" x2="260.979" y2="167.901" gradientUnits="userSpaceOnUse">
<stop stop-color="#FF3300"/>
<stop offset="1" stop-color="#FF3300" stop-opacity="0"/>
</linearGradient>
<linearGradient id="paint2_linear_39_2994" x1="243.622" y1="35.5765" x2="264.128" y2="88.878" gradientUnits="userSpaceOnUse">
<stop stop-color="#DF4FEC"/>
<stop offset="1" stop-color="#EC514F"/>
</linearGradient>
<linearGradient id="paint3_linear_39_2994" x1="65.0487" y1="159.292" x2="45.9184" y2="121.102" gradientUnits="userSpaceOnUse">
<stop stop-color="#865CFC"/>
<stop offset="1" stop-color="#865CFC" stop-opacity="0"/>
</linearGradient>
<linearGradient id="paint4_linear_39_2994" x1="110.767" y1="14.9689" x2="84.8419" y2="44.586" gradientUnits="userSpaceOnUse">
<stop stop-color="#386CEB"/>
<stop offset="1" stop-color="#87A8F8" stop-opacity="0"/>
</linearGradient>
<linearGradient id="paint5_linear_39_2994" x1="35.1163" y1="173.275" x2="26.747" y2="148.703" gradientUnits="userSpaceOnUse">
<stop stop-color="#FF4646"/>
<stop offset="1" stop-color="#EE2DFF" stop-opacity="0"/>
</linearGradient>
</defs>
</svg>
