<svg width="69" height="105" viewBox="0 0 69 105" fill="none" xmlns="http://www.w3.org/2000/svg">
<path d="M5.84697 89.5377C21.5367 84.2053 26.1637 78.8726 37.0337 89.5375C47.9036 100.202 47.7604 113.189 48.9751 96.8211C50.4133 77.4415 63.9077 72.7098 67.9148 57.4358C71.9219 42.1617 65.3581 38.8583 39.3733 38.8583C13.3885 38.8583 11.0115 -19.268 11.0115 6.66219C11.0115 32.5924 -9.84274 94.8702 5.84697 89.5377Z" fill="#E671F8"/>
<path d="M5.84697 89.5377C21.5367 84.2053 26.1637 78.8726 37.0337 89.5375C47.9036 100.202 47.7604 113.189 48.9751 96.8211C50.4133 77.4415 63.9077 72.7098 67.9148 57.4358C71.9219 42.1617 65.3581 38.8583 39.3733 38.8583C13.3885 38.8583 11.0115 -19.268 11.0115 6.66219C11.0115 32.5924 -9.84274 94.8702 5.84697 89.5377Z" fill="url(#paint0_linear_39_2559)"/>
<path d="M29.6057 54.313C29.6057 55.2286 30.0391 55.9709 30.5737 55.9709C31.1083 55.9709 31.5417 55.2286 31.5417 54.313C31.5417 53.3974 31.1083 54.3128 30.5737 54.3128C30.0391 54.3128 29.6057 53.3974 29.6057 54.313Z" fill="#2A2D74"/>
<path d="M25.9373 54.3737C25.9373 55.2893 26.3707 56.0315 26.9053 56.0315C27.4399 56.0315 27.8733 55.2893 27.8733 54.3737C27.8733 53.4581 27.4399 54.3735 26.9053 54.3735C26.3707 54.3735 25.9373 53.4581 25.9373 54.3737Z" fill="#2A2D74"/>
<defs>
<linearGradient id="paint0_linear_39_2559" x1="23.6216" y1="35.5765" x2="44.1282" y2="88.878" gradientUnits="userSpaceOnUse">
<stop stop-color="#DF4FEC"/>
<stop offset="1" stop-color="#EC514F"/>
</linearGradient>
</defs>
</svg>
