<svg width="42" height="52" viewBox="0 0 42 52" fill="none" xmlns="http://www.w3.org/2000/svg">
<path fill-rule="evenodd" clip-rule="evenodd" d="M15.3139 32.1631C14.4849 38.2835 10.8225 42.9854 8.33937 46.1732C6.10799 49.0378 4.82895 50.6799 7.41415 51.03C12.8762 51.7699 29.7357 34.0818 31.3097 22.4614C32.1895 15.9659 31.4898 10.578 29.7475 6.95971C31.4095 8.31356 33.8953 9.1402 36.4786 6.7422C35.4178 7.70011 32.4072 8.37294 28.0273 4.32492C27.7593 4.02516 27.4792 3.75219 27.1877 3.50707C27.132 3.44999 27.076 3.39216 27.0199 3.33357L27.0635 3.40485C26.1266 2.6505 25.0763 2.17935 23.9403 2.02548C21.322 1.67083 12.3827 1.6603 8.51897 10.8542C8.51018 10.8752 8.50146 10.8961 8.49283 10.917C6.78925 11.9912 5.36837 11.8824 4.60253 11.491C5.92729 12.1912 7.08407 12.3331 8.07268 12.1313C6.73025 16.9493 9.49705 20.8947 11.9975 24.4601C13.9017 27.1755 15.6515 29.6706 15.3139 32.1631ZM4.53906 11.4571C4.56026 11.4685 4.58142 11.4798 4.60253 11.491C4.58085 11.4799 4.55969 11.4686 4.53906 11.4571ZM36.5311 6.69302C36.5142 6.70948 36.4967 6.72588 36.4786 6.7422C36.4961 6.72596 36.5136 6.70956 36.5311 6.69302Z" fill="#FF3838"/>
<path fill-rule="evenodd" clip-rule="evenodd" d="M15.3139 32.1631C14.4849 38.2835 10.8225 42.9854 8.33937 46.1732C6.10799 49.0378 4.82895 50.6799 7.41415 51.03C12.8762 51.7699 29.7357 34.0818 31.3097 22.4614C32.1895 15.9659 31.4898 10.578 29.7475 6.95971C31.4095 8.31356 33.8953 9.1402 36.4786 6.7422C35.4178 7.70011 32.4072 8.37294 28.0273 4.32492C27.7593 4.02516 27.4792 3.75219 27.1877 3.50707C27.132 3.44999 27.076 3.39216 27.0199 3.33357L27.0635 3.40485C26.1266 2.6505 25.0763 2.17935 23.9403 2.02548C21.322 1.67083 12.3827 1.6603 8.51897 10.8542C8.51018 10.8752 8.50146 10.8961 8.49283 10.917C6.78925 11.9912 5.36837 11.8824 4.60253 11.491C5.92729 12.1912 7.08407 12.3331 8.07268 12.1313C6.73025 16.9493 9.49705 20.8947 11.9975 24.4601C13.9017 27.1755 15.6515 29.6706 15.3139 32.1631ZM4.53906 11.4571C4.56026 11.4685 4.58142 11.4798 4.60253 11.491C4.58085 11.4799 4.55969 11.4686 4.53906 11.4571ZM36.5311 6.69302C36.5142 6.70948 36.4967 6.72588 36.4786 6.7422C36.4961 6.72596 36.5136 6.70956 36.5311 6.69302Z" fill="url(#paint0_linear_39_2573)" fill-opacity="0.9"/>
<ellipse cx="22.4258" cy="14.8406" rx="1.1341" ry="1.94225" transform="rotate(-7.50539 22.4258 14.8406)" fill="#2A2D74"/>
<ellipse cx="26.3777" cy="14.3202" rx="1.1341" ry="1.94225" transform="rotate(-7.50539 26.3777 14.3202)" fill="#2A2D74"/>
<defs>
<linearGradient id="paint0_linear_39_2573" x1="35.1163" y1="32.2746" x2="26.747" y2="7.70323" gradientUnits="userSpaceOnUse">
<stop stop-color="#FF4646"/>
<stop offset="1" stop-color="#EE2DFF" stop-opacity="0"/>
</linearGradient>
</defs>
</svg>
