<svg width="41" height="73" viewBox="0 0 41 73" fill="none" xmlns="http://www.w3.org/2000/svg">
<path d="M35.5809 48.7313C28.1445 62.1246 31.7536 63.7876 29.1567 69.8386C26.5598 75.8896 27.6585 30.57 7.94615 28.2153C-11.7662 25.8606 20.6696 6.83368 27.4049 1.45831C29.1004 0.105137 22.6463 7.42564 24.4342 10.5789C29.7486 19.9518 43.0174 35.3379 35.5809 48.7313Z" fill="#B336F2"/>
<path d="M35.5809 48.7313C28.1445 62.1246 31.7536 63.7876 29.1567 69.8386C26.5598 75.8896 27.6585 30.57 7.94615 28.2153C-11.7662 25.8606 20.6696 6.83368 27.4049 1.45831C29.1004 0.105137 22.6463 7.42564 24.4342 10.5789C29.7486 19.9518 43.0174 35.3379 35.5809 48.7313Z" fill="url(#paint0_linear_39_2563)"/>
<ellipse cx="0.77665" cy="1.33008" rx="0.77665" ry="1.33008" transform="matrix(-0.99684 0.079439 0.079439 0.99684 9.97913 20.8505)" fill="#2A2D74"/>
<ellipse cx="0.77665" cy="1.33008" rx="0.77665" ry="1.33008" transform="matrix(-0.99684 0.079439 0.079439 0.99684 6.81451 21.1028)" fill="#2A2D74"/>
<defs>
<linearGradient id="paint0_linear_39_2563" x1="33.0487" y1="46.2923" x2="13.9184" y2="8.10234" gradientUnits="userSpaceOnUse">
<stop stop-color="#865CFC"/>
<stop offset="1" stop-color="#865CFC" stop-opacity="0"/>
</linearGradient>
</defs>
</svg>
