<svg width="292" height="114" viewBox="0 0 292 114" fill="none" xmlns="http://www.w3.org/2000/svg">
<path fill-rule="evenodd" clip-rule="evenodd" d="M66.3554 27.824L82.905 0.557807C83.0972 0.241305 82.7514 -0.127872 82.4232 0.0434765C79.53 1.55375 71.7236 5.9235 65.5947 12.0524C58.8782 18.7689 64.3061 26.1381 65.7631 27.8702C65.9241 28.0616 66.2256 28.0378 66.3554 27.824ZM82.4968 59.4296C82.7181 59.7667 82.3112 60.1614 81.9809 59.93L68.1546 50.2397C59.4404 44.1323 55.428 33.2277 58.1908 22.9513C58.4097 22.1373 58.6445 21.4246 58.865 20.8276C59.0018 20.4574 59.5455 20.5373 59.5729 20.931C59.8371 24.7246 62.6789 29.2233 64.4436 32.0168L64.6473 32.3396C65.7668 34.1154 71.3048 42.4902 76.0965 49.7366L76.097 49.7373L76.0977 49.7383C78.7529 53.7537 81.1788 57.4224 82.4968 59.4296ZM85.0954 59.4422L101.645 32.1761C101.775 31.9623 102.076 31.9384 102.237 32.1298C103.694 33.862 109.122 41.2311 102.406 47.9477C96.2769 54.0765 88.4704 58.4463 85.5773 59.9566C85.249 60.1279 84.9032 59.7588 85.0954 59.4422ZM85.5034 0.569714C85.2821 0.232599 85.689 -0.162162 86.0193 0.0693167L99.8456 9.75959C108.56 15.867 112.572 26.7716 109.809 37.0479C109.591 37.862 109.356 38.5746 109.135 39.1717C108.998 39.5419 108.455 39.462 108.427 39.0683C108.194 35.7222 105.788 31.8968 104.041 29.1203C103.73 28.6247 103.439 28.1625 103.185 27.7424C101.488 24.9306 89.2 6.19936 85.5034 0.569714Z" fill="#1D1C47"/>
<path d="M134.673 35L144.673 25" stroke="#1D1C47" stroke-width="3"/>
<path d="M134.673 25L144.673 35" stroke="#1D1C47" stroke-width="3"/>
<g clip-path="url(#clip0_326_5965)">
<path d="M192.258 15.9076C192.258 16.9306 192.1 17.9535 191.818 18.9764C191.783 19.1351 191.8 19.241 191.924 19.3644C192.117 19.5408 192.293 19.7348 192.47 19.9112C192.575 20.017 192.646 20.017 192.769 19.9464C194.548 18.9235 196.468 18.2357 198.494 17.9359C202.756 17.2833 206.719 18.0593 210.401 20.3168C210.594 20.4403 210.7 20.4226 210.859 20.2639C211.052 20.0346 211.264 19.8406 211.475 19.6466C211.563 19.5584 211.598 19.4702 211.563 19.3292C210.542 15.8195 211.264 12.5743 213.307 9.64661C216.037 5.73127 219.613 2.85649 224.069 1.11046C224.915 0.775362 225.795 0.546086 226.676 0.404992C227.152 0.334445 227.574 0.563722 227.786 1.00464C227.997 1.44556 227.909 1.88647 227.557 2.23921C227.099 2.69776 226.659 3.13868 226.201 3.59723C226.112 3.68542 225.936 3.7736 226.042 3.91469C226.148 4.03815 226.271 3.87942 226.359 3.80887C227.451 3.08577 228.526 2.34503 229.6 1.62192C229.723 1.53374 229.864 1.44556 230.005 1.39265C230.375 1.23392 230.727 1.28683 231.027 1.58665C231.326 1.88647 231.361 2.23921 231.238 2.60958C231.185 2.76831 231.097 2.89176 230.992 3.01522C230.093 4.19688 229.177 5.37854 228.279 6.54256C228.209 6.63074 228.05 6.7542 228.173 6.86002C228.297 6.98348 228.402 6.80711 228.49 6.73656C229.706 5.81945 230.886 4.88471 232.101 3.9676C232.348 3.7736 232.612 3.68542 232.929 3.73833C233.634 3.84415 233.951 4.58489 233.546 5.23744C233.264 5.696 232.947 6.13691 232.647 6.59547C232.172 7.31857 231.679 8.04168 231.185 8.76478C231.185 8.76478 231.168 8.80005 231.15 8.80005C231.097 8.88824 231.027 8.97642 231.115 9.04697C231.203 9.09988 231.273 9.04697 231.326 8.95878C231.432 8.85296 231.555 8.74714 231.643 8.64132C232.013 8.27095 232.418 7.91822 232.753 7.53021C233.07 7.15984 233.651 7.10693 234.039 7.31857C234.462 7.54785 234.673 8.0064 234.585 8.51787C234.338 9.9288 233.88 11.2692 233.246 12.5567C231.379 16.3662 228.737 19.4879 225.232 21.8865C223.647 22.9799 221.885 23.6854 219.965 23.9147C218.538 24.0911 217.112 23.95 215.738 23.5443C215.526 23.4914 215.368 23.509 215.227 23.6678C215.068 23.8618 214.734 24.0029 214.734 24.2321C214.734 24.4262 214.998 24.6378 215.139 24.8318C217.094 27.5478 218.204 30.5814 218.415 33.9323C218.626 37.3538 217.887 40.5637 216.213 43.5443C216.125 43.7031 216.161 43.7912 216.266 43.9147C216.777 44.3909 217.253 44.8847 217.746 45.3785C220.916 48.5708 224.104 51.763 227.293 54.9553C228.42 56.084 228.438 57.8477 227.328 58.9411C226.218 60.0522 224.457 60.0346 223.329 58.9059C221.603 57.1775 219.895 55.4667 218.186 53.7383C216.372 51.9041 214.54 50.0875 212.726 48.2533C212.585 48.0946 212.497 48.1122 212.338 48.2533C209.767 50.4226 206.807 51.7807 203.443 52.2039C198.652 52.8036 194.337 51.6219 190.497 48.6766C190.321 48.5355 190.25 48.6237 190.127 48.7295C186.639 52.2216 183.169 55.696 179.682 59.1881C178.66 60.211 177.04 60.2992 175.93 59.3997C174.644 58.3591 174.538 56.4367 175.736 55.2374C176.987 53.9676 178.255 52.7154 179.523 51.4456C181.602 49.3644 183.663 47.3009 185.759 45.2022C185.988 44.9729 186.199 44.7612 186.428 44.5496C186.569 44.4262 186.569 44.3203 186.463 44.1792C185.353 42.3979 184.578 40.5108 184.191 38.4473C183.328 33.9147 184.103 29.6642 186.551 25.7313C186.974 25.0434 187.45 24.4085 187.996 23.7912C188.119 23.6501 188.101 23.5796 187.996 23.4561C187.802 23.2269 187.608 23.1916 187.309 23.2621C184.191 24.1087 181.267 23.562 178.537 21.9041C176.705 20.793 175.137 19.3821 173.711 17.7771C171.967 15.8371 170.54 13.6854 169.518 11.2516C169.113 10.2463 168.796 9.18806 168.602 8.12986C168.514 7.65367 168.726 7.17748 169.149 6.96584C169.571 6.73656 170.047 6.78947 170.417 7.15984C170.892 7.6184 171.35 8.07695 171.808 8.5355C171.861 8.58841 171.914 8.64132 171.984 8.6766C172.02 8.69423 172.072 8.71187 172.125 8.6766C172.161 8.64132 172.161 8.58841 172.125 8.5355C172.09 8.48259 172.055 8.42968 172.02 8.35914C171.262 7.23039 170.505 6.10164 169.747 4.97289C169.589 4.74362 169.501 4.4967 169.501 4.21452C169.518 3.86178 169.695 3.59723 170.029 3.4385C170.399 3.26213 170.769 3.33268 171.104 3.56196C171.65 3.9676 172.178 4.39088 172.724 4.79653C173.394 5.32563 174.08 5.83709 174.75 6.36619C174.838 6.4191 174.926 6.57783 175.049 6.47201C175.155 6.36619 175.014 6.26037 174.961 6.17219C174.028 4.95526 173.112 3.73833 172.178 2.53903C171.949 2.22157 171.861 1.88647 172.002 1.5161C172.213 0.916456 172.9 0.722452 173.482 1.11046C174.239 1.62192 174.996 2.13339 175.754 2.62721C176.159 2.89176 176.582 3.17395 176.987 3.45614C177.075 3.50905 177.163 3.5796 177.233 3.50905C177.321 3.42087 177.233 3.33268 177.145 3.26213C176.67 2.78594 176.177 2.29212 175.701 1.79829C175.366 1.46319 175.296 0.987003 175.525 0.563722C175.736 0.158079 176.194 -0.088835 176.635 -0.0182883C178.449 0.281535 180.14 0.934092 181.743 1.81593C185.054 3.65014 187.819 6.084 189.986 9.18806C191.078 10.7754 191.818 12.4861 192.082 14.4085C192.17 14.8847 192.205 15.3785 192.205 15.89L192.258 15.9076ZM232.101 5.41381C232.101 5.41381 232.119 5.41381 232.137 5.39617L232.119 5.37854C232.119 5.37854 232.101 5.39617 232.101 5.41381C232.066 5.41381 232.048 5.43145 232.031 5.44908C231.96 5.50199 231.89 5.53727 231.837 5.59018C230.904 6.31328 229.988 7.01875 229.054 7.72422C228.561 8.11222 227.892 8.05931 227.451 7.63603C227.011 7.21275 226.976 6.54256 227.345 6.03109C227.522 5.78418 227.715 5.53727 227.909 5.29035C228.49 4.53198 229.072 3.75596 229.653 2.99758C229.653 2.97995 229.688 2.96231 229.688 2.96231C229.671 2.92704 229.653 2.96231 229.618 2.96231C228.702 3.57959 227.786 4.19688 226.87 4.81416C226.482 5.06108 226.077 5.11399 225.672 4.93762C224.88 4.62016 224.668 3.5796 225.285 2.97995C225.76 2.48612 226.253 2.02757 226.747 1.53374C226.729 1.5161 226.711 1.49847 226.694 1.48083C226.042 1.58665 225.426 1.76302 224.809 1.97466C222.625 2.7154 220.67 3.87942 218.855 5.32563C216.847 6.93056 215.068 8.74714 213.747 10.9517C212.849 12.4508 212.285 14.0734 212.215 15.8371C212.162 16.9129 212.303 17.9711 212.602 18.9941C212.761 19.5408 212.655 20.017 212.215 20.405C212.021 20.5814 211.863 20.7754 211.687 20.9341C211.563 21.0399 211.563 21.1105 211.704 21.1986C212.391 21.7101 213.025 22.2745 213.624 22.8918C213.765 23.0329 213.888 23.2798 214.047 23.2974C214.223 23.2974 214.346 23.0329 214.505 22.9094C214.54 22.8741 214.593 22.8212 214.628 22.7859C215.016 22.3803 215.474 22.2568 216.02 22.4156C217.446 22.8389 218.891 22.9447 220.37 22.7154C222.149 22.4156 223.717 21.6748 225.161 20.6343C227.257 19.1351 229.019 17.2833 230.516 15.1845C231.837 13.3327 232.876 11.3397 233.422 9.13515C233.475 8.90587 233.563 8.6766 233.546 8.37677C233.458 8.46496 233.387 8.51787 233.334 8.57078C232.929 8.97642 232.506 9.38206 232.101 9.78771C231.767 10.1228 231.344 10.2286 230.904 10.1052C230.076 9.87589 229.776 8.94115 230.269 8.20041C230.868 7.30094 231.485 6.38383 232.084 5.48436C232.119 5.46672 232.119 5.44908 232.137 5.43145L232.101 5.41381ZM207.477 41.763C207.477 41.763 207.424 41.763 207.406 41.7807C205.592 42.8918 203.778 44.0205 201.946 45.1316C201.823 45.2198 201.805 45.2904 201.805 45.4138V49.5937C201.805 49.5937 201.77 49.7172 201.84 49.7524C201.875 49.6995 201.928 49.6466 201.964 49.5937C202.474 48.8706 202.985 48.1475 203.514 47.4244C204.852 45.5549 206.173 43.6678 207.512 41.7983C207.512 41.7807 207.53 41.7454 207.53 41.7454C207.494 41.7277 207.477 41.7454 207.459 41.763H207.477ZM208.164 36.1545C208.164 36.1545 208.199 36.1898 208.217 36.1545C208.217 36.1545 208.199 36.1369 208.181 36.1193C208.146 36.0487 208.111 35.9605 208.076 35.89C206.667 33.6678 205.257 31.4456 203.866 29.2233C203.672 28.9059 203.461 28.5708 203.249 28.2533C203.056 28.4826 202.88 28.6942 202.703 28.8882C202.369 29.2762 202.087 29.2586 201.805 28.8353C201.629 28.5708 201.453 28.2886 201.277 27.9888C201.083 28.2886 200.907 28.5708 200.731 28.853C200.466 29.2586 200.185 29.2762 199.867 28.9059C199.691 28.6942 199.498 28.4826 199.304 28.2533C199.251 28.3415 199.216 28.3768 199.181 28.4473C198.018 30.2992 196.855 32.151 195.675 33.9852C195.235 34.6907 194.795 35.3785 194.354 36.084C194.354 36.1016 194.354 36.1193 194.337 36.1369C194.354 36.1369 194.372 36.1369 194.39 36.1193C194.46 36.084 194.53 36.0664 194.601 36.0311C196.697 35.1493 198.793 34.2674 200.871 33.368C201.136 33.2445 201.382 33.2445 201.664 33.368C202.51 33.7383 203.373 34.0911 204.218 34.4614C205.539 35.0258 206.86 35.5725 208.164 36.1369V36.1545ZM192.628 36.5602C192.628 36.5602 192.522 36.5955 192.487 36.6131C191.378 37.0717 190.268 37.5478 189.158 38.0064C188.101 38.4473 187.062 38.9059 185.988 39.3292C185.723 39.435 185.723 39.5232 185.794 39.7524C186.657 42.539 188.154 44.92 190.303 46.8953C192.751 49.1528 195.64 50.5284 198.934 51.0223C199.357 51.0752 199.779 51.1457 200.237 51.1281C200.185 51.0399 200.132 50.9694 200.079 50.9165C197.56 47.4597 195.024 43.9852 192.487 40.5108C192.205 40.1228 192.17 39.8406 192.382 39.6113C192.593 39.3821 192.857 39.3821 193.262 39.6113C195.834 41.1105 198.406 42.6096 200.995 44.1087C201.153 44.1969 201.259 44.2145 201.418 44.1087C204.024 42.5038 206.631 40.8988 209.256 39.3115C209.397 39.2233 209.555 39.1351 209.731 39.1704C210.154 39.2233 210.383 39.7172 210.048 40.1581C207.494 43.7207 204.958 47.3009 202.422 50.8635C202.369 50.9517 202.281 51.0046 202.263 51.1105C202.351 51.1457 202.439 51.1281 202.51 51.1105C203.073 51.0752 203.619 51.0046 204.183 50.8988C210.383 49.5408 214.54 45.8724 216.654 39.8759C216.795 39.4702 216.777 39.4702 216.407 39.2939C214.663 38.5531 212.92 37.83 211.193 37.0893C210.753 36.9129 210.313 36.6837 209.837 36.5602C209.837 36.5602 209.819 36.5426 209.802 36.5249C209.802 36.5249 209.802 36.5249 209.784 36.5249C209.784 36.5249 209.802 36.5426 209.819 36.5602C209.89 36.6837 209.943 36.8071 210.031 36.9306C210.348 37.442 210.295 37.6713 209.767 37.9888C207.072 39.5761 204.377 41.1634 201.682 42.7683C201.365 42.9623 201.1 42.9623 200.783 42.7683C199.55 42.0276 198.317 41.3045 197.084 40.5814C195.587 39.6995 194.09 38.8001 192.593 37.9182C192.223 37.6889 192.153 37.3891 192.364 37.0364C192.452 36.8777 192.54 36.7366 192.628 36.5778C192.628 36.5602 192.628 36.5426 192.628 36.5249C192.628 36.5249 192.628 36.5249 192.593 36.5426L192.628 36.5602ZM173.834 2.64485C173.834 2.64485 173.781 2.59194 173.746 2.60958C173.711 2.64485 173.746 2.66249 173.781 2.68012C174.521 3.65014 175.278 4.6378 176.018 5.62545C176.423 6.17219 176.406 6.86002 175.965 7.30093C175.507 7.74185 174.855 7.75949 174.292 7.33621C173.341 6.6131 172.407 5.89 171.474 5.1669C171.421 5.13162 171.386 5.06108 171.297 5.11399C171.35 5.20217 171.403 5.27272 171.456 5.34326C172.037 6.20746 172.618 7.07166 173.182 7.93586C173.622 8.60605 173.358 9.45261 172.636 9.7348C172.125 9.9288 171.667 9.82298 171.28 9.43497C170.822 8.97642 170.382 8.50023 169.906 8.0064C169.835 8.12986 169.871 8.21804 169.888 8.27095C170.012 8.85296 170.153 9.43497 170.364 9.99935C172.037 14.4967 174.908 18.0417 178.871 20.7048C181.478 22.4685 184.349 23.0329 187.45 22.1157C187.925 21.9747 188.348 22.0981 188.7 22.4508C188.771 22.5214 188.859 22.5919 188.912 22.6625C189.017 22.7859 189.088 22.7859 189.211 22.6625C189.792 22.0805 190.444 21.5514 191.096 21.0399C191.272 20.8988 191.624 20.8106 191.606 20.6166C191.606 20.4403 191.325 20.2815 191.149 20.1052C190.708 19.6995 190.62 19.2233 190.779 18.6766C191.166 17.3186 191.289 15.9429 191.096 14.5496C190.849 12.7683 190.127 11.181 189.105 9.71716C187.872 7.93586 186.375 6.4191 184.684 5.06108C182.764 3.52668 180.686 2.27448 178.343 1.53374C177.832 1.37501 177.304 1.21628 176.705 1.1281C176.828 1.25155 176.881 1.3221 176.969 1.41028C177.374 1.81593 177.779 2.22157 178.185 2.62721C178.449 2.89176 178.572 3.22686 178.519 3.61487C178.378 4.56725 177.392 4.99053 176.582 4.44379C175.666 3.82651 174.767 3.22686 173.851 2.62721L173.834 2.64485ZM217.076 38.2886C218.116 33.8441 217.112 27.0011 211.317 22.3627C205.786 17.9359 197.912 17.6537 192.064 21.7101C185.935 25.9782 184.261 33.0152 185.424 38.2533C185.512 38.218 185.53 38.1299 185.582 38.0593C187.96 34.3027 190.338 30.5461 192.716 26.7895C193.033 26.278 193.474 26.278 193.808 26.7895C194.601 28.0417 195.411 29.3115 196.204 30.5637C196.309 30.7283 196.415 30.7283 196.521 30.5637C197.912 28.3591 199.321 26.1369 200.713 23.9323C201.03 23.4561 201.47 23.4561 201.787 23.9323C202.598 25.2022 203.39 26.472 204.218 27.7418C204.87 28.7471 205.504 29.7701 206.138 30.7754C206.226 30.7225 206.261 30.6343 206.314 30.5461C207.107 29.2939 207.9 28.0417 208.692 26.7895C209.027 26.2604 209.45 26.2604 209.802 26.7895C211.898 30.0875 213.976 33.3856 216.072 36.6836C216.407 37.2127 216.742 37.7418 217.076 38.2886ZM227.152 57.0187C227.152 56.4367 226.923 56.0487 226.57 55.6784C222.96 52.0628 219.366 48.465 215.755 44.8318C215.632 44.7083 215.579 44.726 215.491 44.8671C214.928 45.696 214.293 46.4544 213.589 47.1598C213.483 47.2657 213.466 47.3186 213.589 47.4244C214.012 47.83 214.417 48.271 214.839 48.6942C216.425 50.2815 218.01 51.8512 219.595 53.4561C220.617 54.4791 221.639 55.5196 222.66 56.5426C223.189 57.0717 223.735 57.6184 224.263 58.1475C224.791 58.659 225.496 58.8001 226.13 58.5179C226.799 58.218 227.116 57.6713 227.152 57.0187ZM176.124 57.1951C176.124 57.3186 176.124 57.442 176.159 57.5655C176.317 58.218 176.705 58.659 177.357 58.8177C177.991 58.9941 178.554 58.8353 179.012 58.3768C180.333 57.054 181.655 55.7313 182.976 54.4085C185.124 52.2568 187.273 50.1228 189.422 47.9711C189.546 47.8477 189.581 47.7948 189.422 47.6537C188.683 46.9835 188.031 46.2427 187.45 45.4491C187.361 45.3256 187.309 45.2904 187.185 45.4138C183.663 48.9411 180.122 52.4861 176.599 56.0135C176.3 56.3309 176.124 56.7366 176.124 57.1775V57.1951ZM187.168 37.6713C187.326 37.6184 187.397 37.5831 187.467 37.5655C189.281 36.8071 191.113 36.0311 192.945 35.2551C193.104 35.2022 193.262 35.1316 193.403 35.1845C193.579 35.2551 193.632 35.1669 193.703 35.0611C194.249 34.1969 194.759 33.315 195.358 32.4861C195.675 32.0452 195.728 31.6925 195.341 31.3045C195.323 31.2868 195.305 31.2692 195.305 31.2516C195.253 31.1457 195.2 31.1457 195.129 31.2516C194.971 31.4279 194.83 31.6219 194.671 31.7807C194.407 32.0805 194.09 32.0628 193.861 31.7277C193.667 31.4279 193.491 31.1281 193.28 30.8283C193.068 31.1457 192.875 31.4808 192.681 31.7807C192.487 32.0805 192.17 32.0981 191.941 31.8336C191.783 31.6572 191.642 31.4985 191.501 31.3221C191.378 31.1634 191.325 31.1986 191.237 31.3574C190.444 32.6096 189.651 33.8794 188.859 35.1316C188.313 35.9605 187.767 36.8071 187.185 37.7242L187.168 37.6713ZM207.301 31.1105C207.142 31.3574 207.001 31.569 206.86 31.7807C206.807 31.8512 206.825 31.9041 206.86 31.9747C207.53 33.0152 208.181 34.0558 208.833 35.0963C208.868 35.1493 208.904 35.2374 209.009 35.2022C209.238 35.0963 209.45 35.2022 209.661 35.2904C211.458 36.0487 213.254 36.8071 215.051 37.5478C215.121 37.5831 215.174 37.6537 215.297 37.5831C213.924 35.4138 212.55 33.2445 211.176 31.0752C211.141 31.1105 211.123 31.1105 211.123 31.1281C210.964 31.3045 210.806 31.4985 210.647 31.6748C210.33 32.0452 210.048 32.0099 209.784 31.6219C209.608 31.3397 209.432 31.0575 209.256 30.7754C209.221 30.8106 209.203 30.8106 209.203 30.8283C209.027 31.0928 208.851 31.375 208.675 31.6572C208.446 31.9923 208.146 32.0276 207.864 31.7101C207.688 31.5161 207.494 31.3045 207.318 31.0928L207.301 31.1105ZM201.823 34.7612V41.4632C204.042 40.1581 206.226 38.853 208.446 37.5478C206.226 36.6131 204.042 35.696 201.823 34.7612ZM200.678 41.4632V34.7612C198.476 35.696 196.274 36.6131 194.072 37.5478C196.292 38.853 198.476 40.1404 200.678 41.4632ZM200.643 49.8053C200.643 49.8053 200.678 49.8053 200.695 49.7877V49.5408C200.695 48.2004 200.695 46.86 200.695 45.5196C200.695 45.3256 200.643 45.2198 200.466 45.1316C198.67 44.0911 196.873 43.0505 195.076 42.0099C195.041 41.9923 195.006 41.9394 194.918 41.9923C196.838 44.6202 198.723 47.2304 200.625 49.823L200.643 49.8053ZM200.22 28.0064C200.414 27.6889 200.607 27.3891 200.819 27.0717C201.083 26.6484 201.435 26.6484 201.699 27.0717C201.893 27.3891 202.087 27.6889 202.298 28.0064C202.604 27.6889 202.645 27.3597 202.422 27.0187C202.333 26.8953 202.263 26.7718 202.175 26.6307C201.875 26.1545 201.576 25.6784 201.241 25.1845C200.836 25.8195 200.449 26.4191 200.079 27.0364C199.867 27.3774 199.914 27.7007 200.22 28.0064ZM210.277 30.7401C210.383 30.6166 210.506 30.4932 210.594 30.3697C210.647 30.3168 210.665 30.2639 210.612 30.1934C210.154 29.4702 209.714 28.7648 209.256 28.0593C209.15 28.1122 209.133 28.1828 209.08 28.2533C208.71 28.8177 208.357 29.3821 208.005 29.9464C207.853 30.1816 207.87 30.3991 208.058 30.599C208.058 30.599 208.058 30.599 208.058 30.6166C208.129 30.7225 208.181 30.7048 208.234 30.599C208.41 30.2992 208.604 30.017 208.78 29.7348C209.009 29.3821 209.379 29.3821 209.608 29.7348C209.819 30.0699 210.031 30.405 210.242 30.7401H210.277ZM192.223 30.7225C192.223 30.7225 192.258 30.7225 192.258 30.7048C192.452 30.3874 192.663 30.0699 192.875 29.7524C193.104 29.3997 193.474 29.3997 193.703 29.7524C193.896 30.0523 194.072 30.3344 194.249 30.6166C194.301 30.7048 194.337 30.7225 194.425 30.6343C194.636 30.4226 194.665 30.1933 194.513 29.9464C194.513 29.9464 194.407 29.7877 194.354 29.7172C194.002 29.1704 193.65 28.606 193.28 28.0417C192.875 28.659 192.505 29.2762 192.117 29.8583C191.918 30.164 191.953 30.452 192.223 30.7225Z" fill="#1D1C47"/>
<path d="M220.071 20.9873C218.715 20.9873 217.552 20.5993 216.566 19.7351C216.425 19.6116 216.284 19.4882 216.231 19.2942C216.143 19.0296 216.266 18.7474 216.495 18.6063C216.742 18.4652 217.024 18.5005 217.253 18.7121C217.728 19.1707 218.274 19.4882 218.926 19.6469C220.282 19.9643 221.586 19.7527 222.783 19.0649C225.003 17.795 226.729 16.0314 227.927 13.7739C228.12 13.4035 228.455 13.2624 228.772 13.4388C229.089 13.5975 229.195 13.9502 229.001 14.3206C228.138 16.0314 226.923 17.4599 225.461 18.6769C224.527 19.4705 223.541 20.1936 222.361 20.5993C221.621 20.8462 220.846 20.9696 220.088 20.9873H220.071Z" fill="#1D1C47"/>
<path d="M183.398 20.5471C181.954 20.5471 180.65 20.1061 179.453 19.3125C177.409 17.9545 175.736 16.2437 174.556 14.0744C174.521 14.0038 174.468 13.9157 174.45 13.8451C174.274 13.4747 174.362 13.122 174.697 12.9633C175.014 12.8045 175.349 12.928 175.525 13.2984C175.754 13.7393 176 14.1626 176.282 14.5682C177.498 16.279 178.96 17.7075 180.827 18.6952C182.024 19.3301 183.31 19.5065 184.649 19.1714C185.248 19.0127 185.759 18.7128 186.199 18.2719C186.428 18.0426 186.745 18.025 186.992 18.1661C187.221 18.3248 187.309 18.5894 187.238 18.8539C187.203 18.9774 187.115 19.0832 187.027 19.1538C186.146 20.0709 184.913 20.5294 183.433 20.5294L183.398 20.5471Z" fill="#1D1C47"/>
</g>
<g clip-path="url(#clip1_326_5965)">
<path d="M38 84.3574H53.5621V91.2534H46.1849V96.6401H51.8439V101.227H46.1849V106.741H53.8765V113.643H38V84.3574Z" fill="#1D1C47"/>
<path d="M61.4328 91.3014H56.5923V84.3574H74.4148V91.3014H69.6177V113.643H61.4328V91.3014Z" fill="#1D1C47"/>
<path d="M77.9434 84.3574H86.1283V95.2161H91.2398V84.3574H99.4734V113.643H91.2398V102.112H86.1283V113.643H77.9434V84.3574Z" fill="#1D1C47"/>
<path d="M113.496 106.741C115.534 106.741 116.255 104.784 116.255 98.9068C116.255 93.0294 115.485 91.2534 113.361 91.2534H112.006V106.741H113.496ZM103.815 84.3574H112.905C121.318 84.3574 124.483 88.6294 124.483 98.9121C124.483 109.195 121.453 113.643 113.539 113.643H103.815V84.3574Z" fill="#1D1C47"/>
<path d="M128.375 84.3574H143.938V91.2534H136.566V96.6401H142.219V101.227H136.566V106.741H144.252V113.643H128.375V84.3574Z" fill="#1D1C47"/>
<path d="M147.829 84.3574H158.773L163.164 101.003H163.207L162.665 84.3574H169.674V113.643H160.042L154.296 94.0588H154.253L154.881 113.643H147.829V84.3574Z" fill="#1D1C47"/>
<path d="M178.585 100.469C182.791 97.5782 183.062 96.6875 183.062 93.8395C183.062 91.5675 182.564 90.5489 181.388 90.5489C180.211 90.5489 179.669 91.4395 179.669 94.5969C179.669 95.4875 179.669 96.4689 179.713 97.2689H173.246C173.154 96.6929 173.067 95.4449 173.067 94.3782C173.067 87.6155 175.42 84.0049 182.022 84.0049C187.903 84.0049 190.89 87.1675 190.89 93.1729C190.89 98.2449 188.944 100.874 184.737 103.674C182.385 105.408 182.206 105.898 182.206 106.922H191.209V113.642H173.116C173.116 105.989 173.707 103.808 178.591 100.469" fill="#1D1C47"/>
<path d="M204.733 98.912C204.733 92.6347 204.191 90.768 202.88 90.768C201.568 90.768 201.026 92.64 201.026 98.912C201.026 105.184 201.568 107.237 202.88 107.237C204.191 107.237 204.733 105.365 204.733 98.912ZM193.47 98.864C193.47 88.5867 196.456 84 202.88 84C209.303 84 212.29 88.5867 212.29 98.864C212.29 109.141 209.438 113.995 202.88 113.995C196.321 113.995 193.47 109.28 193.47 98.864Z" fill="#1D1C47"/>
<path d="M220.252 100.469C224.458 97.5782 224.729 96.6875 224.729 93.8395C224.729 91.5675 224.231 90.5489 223.055 90.5489C221.878 90.5489 221.336 91.4395 221.336 94.5969C221.336 95.4875 221.336 96.4689 221.38 97.2689H214.913C214.821 96.6929 214.734 95.4449 214.734 94.3782C214.734 87.6155 217.087 84.0049 223.689 84.0049C229.57 84.0049 232.557 87.1675 232.557 93.1729C232.557 98.2449 230.611 100.874 226.404 103.674C224.052 105.408 223.873 105.898 223.873 106.922H232.876V113.642H214.783C214.783 105.989 215.368 103.808 220.258 100.469" fill="#1D1C47"/>
<path d="M243.506 101.627V93.4828H243.463L239.891 101.536V101.627H243.511H243.506ZM243.506 108.299H234.459V101.845L242.872 84.3574H251.376V101.627H254V108.304H251.376V113.643H243.506V108.304V108.299Z" fill="#1D1C47"/>
</g>
<defs>
<clipPath id="clip0_326_5965">
<rect width="66" height="60" fill="white" transform="translate(168.673)"/>
</clipPath>
<clipPath id="clip1_326_5965">
<rect width="216" height="30" fill="white" transform="translate(38 84)"/>
</clipPath>
</defs>
</svg>
