<svg width="272" height="52" viewBox="0 0 272 52" fill="none" xmlns="http://www.w3.org/2000/svg">
<path d="M8.03258 42.2439C6.87365 42.2439 6.0544 42.0008 5.57485 41.5145C5.13525 41.0283 4.91546 40.2584 4.91546 39.2048L4.91546 21.4563H2.87734C1.75837 21.4563 0.999077 21.2334 0.599446 20.7877C0.199815 20.3014 0 19.5112 0 18.4171L0 16.1074C0 15.0133 0.199815 14.2434 0.599446 13.7977C0.999077 13.3114 1.75837 13.0683 2.87734 13.0683H4.91546V12.1565C4.91546 8.26644 5.9545 5.26783 8.03258 3.1607C10.1506 1.05357 13.3077 0 17.5038 0C21.7799 0 25.1168 0.891477 27.5146 2.67444C27.9941 3.03913 28.2339 3.40383 28.2339 3.76852C28.2339 4.05218 28.114 4.37635 27.8742 4.74104L25.7162 8.44879C25.4365 8.89453 25.1168 9.1174 24.7571 9.1174C24.4774 9.1174 24.1976 9.03635 23.9179 8.87427C22.8789 8.30696 21.7399 8.02331 20.5011 8.02331C19.2622 8.02331 18.363 8.32722 17.8035 8.93505C17.284 9.54287 17.0243 10.4546 17.0243 11.6703V13.0683H22.1196C23.2385 13.0683 23.9978 13.3114 24.3975 13.7977C24.7971 14.2434 24.9969 15.0133 24.9969 16.1074V18.4171C24.9969 19.5112 24.7971 20.3014 24.3975 20.7877C23.9978 21.2334 23.2385 21.4563 22.1196 21.4563H17.0243L17.0243 39.2048C17.0243 40.2584 16.7845 41.0283 16.3049 41.5145C15.8254 42.0008 15.0061 42.2439 13.8472 42.2439H8.03258Z" fill="url(#paint0_linear_110_3244)"/>
<path d="M31.4494 42.2439C30.2904 42.2439 29.4712 42.0008 28.9916 41.5145C28.5121 41.0283 28.2723 40.2584 28.2723 39.2048L28.2723 14.9525C28.2723 14.2231 28.3922 13.7369 28.632 13.4937C28.9117 13.2101 29.4712 13.0683 30.3104 13.0683H36.4847C36.9643 13.0683 37.3239 13.1493 37.5637 13.3114C37.8435 13.433 38.0033 13.6761 38.0433 14.0408L38.343 15.8035C40.7408 13.3722 43.6381 12.1565 47.035 12.1565C48.3537 12.1565 49.4327 12.2781 50.272 12.5212C51.1112 12.7238 51.8705 13.0683 52.5499 13.5545C52.9495 13.8382 53.1493 14.1624 53.1493 14.5271C53.1493 14.6486 53.1093 14.8715 53.0294 15.1957L51.1112 20.7269C50.9513 21.2942 50.6516 21.5778 50.212 21.5778C50.0122 21.5778 49.7724 21.4968 49.4927 21.3347C48.4137 20.7269 47.1149 20.423 45.5963 20.423C44.0777 20.423 42.8189 20.8484 41.8198 21.6994C40.8607 22.5504 40.3811 23.685 40.3811 25.1032V39.2048C40.3811 40.2584 40.1413 41.0283 39.6618 41.5145C39.2222 42.0008 38.4229 42.2439 37.264 42.2439H31.4494Z" fill="url(#paint1_linear_110_3244)"/>
<path d="M59.0201 42.2439C57.8612 42.2439 57.042 42.0008 56.5624 41.5145C56.1228 41.0283 55.903 40.2584 55.903 39.2048L55.903 4.01166C55.903 2.95809 56.1428 2.18818 56.6223 1.70191C57.1019 1.17513 57.9012 0.911742 59.0201 0.911742L83.8971 0.911742C85.0161 0.911742 85.7754 1.15487 86.175 1.64113C86.5747 2.08687 86.7745 2.85678 86.7745 3.95087V6.74687C86.7745 7.84096 86.5747 8.63113 86.175 9.1174C85.7754 9.56314 85.0161 9.78601 83.8971 9.78601L68.0118 9.78601V17.2015L78.5021 17.2015C79.6211 17.2015 80.3804 17.4446 80.78 17.9309C81.2196 18.3766 81.4394 19.1465 81.4394 20.2406V22.9151C81.4394 24.0091 81.2196 24.7993 80.78 25.2856C80.3804 25.7313 79.6211 25.9542 78.5021 25.9542L68.0118 25.9542V33.4305H83.8372C84.9562 33.4305 85.7155 33.6736 86.1151 34.1598C86.5147 34.6056 86.7145 35.3755 86.7145 36.4696V39.2656C86.7145 40.3192 86.5147 41.0891 86.1151 41.5753C85.7155 42.0211 84.9562 42.2439 83.8372 42.2439L59.0201 42.2439Z" fill="url(#paint2_linear_110_3244)"/>
<path d="M93.2658 42.2439C92.1069 42.2439 91.2876 42.0008 90.8081 41.5145C90.3685 41.0283 90.1487 40.2584 90.1487 39.2048V3.95087C90.1487 2.89731 90.3885 2.12739 90.868 1.64113C91.3476 1.15487 92.1668 0.911742 93.3258 0.911742L98.0614 0.911742C98.7807 0.911742 99.3402 1.01305 99.7398 1.21565C100.179 1.41826 100.599 1.82348 100.999 2.43131L114.846 22.6111V4.01166C114.846 2.95809 115.086 2.18818 115.565 1.70191C116.045 1.17513 116.844 0.911742 117.963 0.911742L123.778 0.911742C124.937 0.911742 125.756 1.17513 126.235 1.70191C126.715 2.18818 126.955 2.95809 126.955 4.01166V39.2656C126.955 40.3192 126.715 41.0891 126.235 41.5753C125.756 42.0211 124.937 42.2439 123.778 42.2439H119.042C118.283 42.2439 117.703 42.1629 117.304 42.0008C116.904 41.7982 116.504 41.393 116.105 40.7852L102.258 20.6053V39.2656C102.258 40.3192 102.018 41.0891 101.538 41.5753C101.059 42.0211 100.239 42.2439 99.0804 42.2439H93.2658Z" fill="url(#paint3_linear_110_3244)"/>
<path d="M148.726 43.1557C145.369 43.1557 142.192 42.8112 139.195 42.1224C136.198 41.393 133.78 40.3799 131.942 39.0832C131.262 38.6375 130.923 38.1715 130.923 37.6852C130.923 37.3611 131.043 37.0166 131.282 36.6519L134.22 31.9109C134.539 31.4246 134.859 31.1815 135.179 31.1815C135.379 31.1815 135.718 31.3233 136.198 31.607C137.676 32.4579 139.355 33.1468 141.233 33.6736C143.111 34.2004 144.97 34.4638 146.808 34.4638C148.686 34.4638 150.065 34.1801 150.944 33.6128C151.863 33.0455 152.323 32.1338 152.323 30.8776C152.323 29.6619 151.823 28.7097 150.824 28.0208C149.865 27.3319 148.047 26.4607 145.369 25.4071C141.333 23.8673 138.176 22.1451 135.898 20.2406C133.66 18.2956 132.541 15.6617 132.541 12.3389C132.541 8.32722 133.96 5.26783 136.797 3.1607C139.635 1.05357 143.411 0 148.127 0C151.404 0 154.201 0.303914 156.519 0.911742C158.877 1.47905 160.875 2.37053 162.514 3.58618C163.193 4.11296 163.533 4.59922 163.533 5.04496C163.533 5.32861 163.413 5.65279 163.173 6.01748L160.236 10.7585C159.876 11.2448 159.556 11.4879 159.277 11.4879C159.077 11.4879 158.737 11.3461 158.257 11.0624C155.94 9.52262 153.182 8.7527 149.985 8.7527C148.267 8.7527 146.948 9.03636 146.029 9.60366C145.11 10.171 144.65 11.103 144.65 12.3997C144.65 13.2911 144.89 14.0205 145.369 14.5878C145.849 15.1551 146.488 15.6617 147.288 16.1074C148.127 16.5126 149.406 17.0394 151.124 17.6878L152.263 18.1132C155.22 19.2884 157.538 20.423 159.217 21.5171C160.935 22.5706 162.234 23.8876 163.113 25.4679C163.992 27.0078 164.432 28.9528 164.432 31.3031C164.432 34.9095 163.093 37.7865 160.415 39.9342C157.778 42.0818 153.882 43.1557 148.726 43.1557Z" fill="url(#paint4_linear_110_3244)"/>
<path d="M184.263 43.1557C178.308 43.1557 173.832 41.8387 170.835 39.2048C167.838 36.5709 166.339 32.6605 166.339 27.4738C166.339 22.8138 167.618 19.106 170.176 16.3505C172.733 13.5545 176.35 12.1565 181.026 12.1565C182.344 12.1565 183.623 12.3186 184.862 12.6428C186.101 12.9264 187.08 13.3114 187.799 13.7977V4.01166C187.799 2.95809 188.039 2.18818 188.519 1.70191C188.998 1.17513 189.818 0.911742 190.976 0.911742L196.551 0.911742C197.71 0.911742 198.529 1.17513 199.009 1.70191C199.489 2.18818 199.728 2.95809 199.728 4.01166V38.8401C198.01 40.0963 195.772 41.1296 193.015 41.94C190.257 42.7505 187.34 43.1557 184.263 43.1557ZM184.622 34.8892C185.981 34.8892 187.06 34.6664 187.859 34.2206V24.4346C187.859 21.7602 186.441 20.423 183.603 20.423C181.845 20.423 180.526 21.0713 179.647 22.368C178.808 23.6242 178.388 25.3464 178.388 27.5345C178.388 30.1685 178.908 32.0527 179.947 33.1873C180.986 34.3219 182.544 34.8892 184.622 34.8892Z" fill="url(#paint5_linear_110_3244)"/>
<path d="M215.218 43.1557C211.461 43.1557 208.444 41.94 206.166 39.5087C203.928 37.0369 202.809 33.5723 202.809 29.1149C202.809 25.7111 203.569 22.7327 205.087 20.1798C206.646 17.627 208.824 15.6617 211.621 14.2839C214.459 12.8657 217.716 12.1565 221.392 12.1565C224.429 12.1565 227.107 12.501 229.425 13.1898C231.783 13.8382 233.941 14.7904 235.899 16.0466V40.3597C235.899 41.1296 235.759 41.6361 235.479 41.8792C235.199 42.1224 234.64 42.2439 233.801 42.2439H227.686C227.247 42.2439 226.907 42.1832 226.667 42.0616C226.428 41.8995 226.228 41.6564 226.068 41.3322L225.289 39.5087C224.13 40.7649 222.731 41.6766 221.093 42.2439C219.494 42.8518 217.536 43.1557 215.218 43.1557ZM219.714 34.8892C221.272 34.8892 222.491 34.5043 223.37 33.7344C224.25 32.9645 224.689 31.8704 224.689 30.4521V20.97C223.93 20.6053 222.971 20.423 221.812 20.423C219.694 20.423 217.995 21.1726 216.717 22.6719C215.478 24.1712 214.858 26.2784 214.858 28.9933C214.858 32.9239 216.477 34.8892 219.714 34.8892Z" fill="url(#paint6_linear_110_3244)"/>
<path d="M246.763 51.726C243.406 51.726 240.509 50.7332 238.071 48.7477C237.632 48.383 237.412 48.0385 237.412 47.7144C237.412 47.4712 237.552 47.1065 237.832 46.6203L240.229 42.3047C240.509 41.7779 240.849 41.5145 241.248 41.5145C241.448 41.5145 241.828 41.6564 242.387 41.94C243.067 42.3452 243.646 42.6492 244.126 42.8518C244.645 43.0544 245.265 43.1557 245.984 43.1557C246.863 43.1557 247.543 42.9125 248.022 42.4263C248.502 41.9805 248.901 41.2714 249.221 40.2989L237.592 15.378C237.392 14.9728 237.292 14.5878 237.292 14.2231C237.292 13.8584 237.392 13.5748 237.592 13.3722C237.832 13.1696 238.151 13.0683 238.551 13.0683H247.363C248.442 13.0683 249.161 13.5748 249.521 14.5878L254.676 28.4463L259.831 14.5878C260.031 14.0611 260.291 13.6761 260.611 13.433C260.93 13.1898 261.39 13.0683 261.989 13.0683L270.801 13.0683C271.6 13.0683 272 13.4532 272 14.2231C272 14.5068 271.9 14.8917 271.7 15.378L260.551 39.3872C259.152 42.3858 257.853 44.7563 256.654 46.4987C255.455 48.2412 254.057 49.5379 252.458 50.3888C250.899 51.2803 249.001 51.726 246.763 51.726Z" fill="url(#paint7_linear_110_3244)"/>
<defs>
<linearGradient id="paint0_linear_110_3244" x1="0.164449" y1="6.02681" x2="189.425" y2="33.6712" gradientUnits="userSpaceOnUse">
<stop offset="0.0677083" stop-color="#5970E0"/>
<stop offset="1" stop-color="#6EEDFC"/>
</linearGradient>
<linearGradient id="paint1_linear_110_3244" x1="0.164449" y1="6.02681" x2="189.425" y2="33.6712" gradientUnits="userSpaceOnUse">
<stop offset="0.0677083" stop-color="#5970E0"/>
<stop offset="1" stop-color="#6EEDFC"/>
</linearGradient>
<linearGradient id="paint2_linear_110_3244" x1="0.164449" y1="6.02681" x2="189.425" y2="33.6712" gradientUnits="userSpaceOnUse">
<stop offset="0.0677083" stop-color="#5970E0"/>
<stop offset="1" stop-color="#6EEDFC"/>
</linearGradient>
<linearGradient id="paint3_linear_110_3244" x1="0.164449" y1="6.02681" x2="189.425" y2="33.6712" gradientUnits="userSpaceOnUse">
<stop offset="0.0677083" stop-color="#5970E0"/>
<stop offset="1" stop-color="#6EEDFC"/>
</linearGradient>
<linearGradient id="paint4_linear_110_3244" x1="0.164449" y1="6.02681" x2="189.425" y2="33.6712" gradientUnits="userSpaceOnUse">
<stop offset="0.0677083" stop-color="#5970E0"/>
<stop offset="1" stop-color="#6EEDFC"/>
</linearGradient>
<linearGradient id="paint5_linear_110_3244" x1="0.164449" y1="6.02681" x2="189.425" y2="33.6712" gradientUnits="userSpaceOnUse">
<stop offset="0.0677083" stop-color="#5970E0"/>
<stop offset="1" stop-color="#6EEDFC"/>
</linearGradient>
<linearGradient id="paint6_linear_110_3244" x1="0.164449" y1="6.02681" x2="189.425" y2="33.6712" gradientUnits="userSpaceOnUse">
<stop offset="0.0677083" stop-color="#5970E0"/>
<stop offset="1" stop-color="#6EEDFC"/>
</linearGradient>
<linearGradient id="paint7_linear_110_3244" x1="0.164449" y1="6.02681" x2="189.425" y2="33.6712" gradientUnits="userSpaceOnUse">
<stop offset="0.0677083" stop-color="#5970E0"/>
<stop offset="1" stop-color="#6EEDFC"/>
</linearGradient>
</defs>
</svg>
