<svg width="79" height="55" viewBox="0 0 79 55" fill="none" xmlns="http://www.w3.org/2000/svg">
<path d="M19.3436 23.3777C30.8519 33.7297 0.243391 47.2996 3.25909 52.215C6.27479 57.1305 61.3773 48.6617 68.7781 42.4595C76.179 36.2574 85.7284 5.3921 59.871 2.1395C34.0136 -1.1131 7.83533 13.0257 19.3436 23.3777Z" fill="#FFA326"/>
<path d="M19.3436 23.3777C30.8519 33.7297 0.243391 47.2996 3.25909 52.215C6.27479 57.1305 61.3773 48.6617 68.7781 42.4595C76.179 36.2574 85.7284 5.3921 59.871 2.1395C34.0136 -1.1131 7.83533 13.0257 19.3436 23.3777Z" fill="url(#paint0_linear_39_2555)"/>
<path d="M31.9417 18.7681C31.1254 18.8216 30.4728 19.343 30.4416 18.8663C30.4104 18.3897 31.0441 17.5794 31.8604 17.5259C32.6767 17.4725 33.4271 18.1922 33.4583 18.6688C33.4895 19.1455 32.758 18.7147 31.9417 18.7681Z" fill="#2A2D74"/>
<path d="M37.2634 18.4198C36.4471 18.4732 35.7945 18.9946 35.7633 18.518C35.7321 18.0413 36.3657 17.231 37.1821 17.1776C37.9984 17.1242 38.7488 17.8438 38.78 18.3205C38.8112 18.7971 38.0797 18.3663 37.2634 18.4198Z" fill="#2A2D74"/>
<defs>
<linearGradient id="paint0_linear_39_2555" x1="74.1455" y1="7.97052" x2="40.9787" y2="51.9006" gradientUnits="userSpaceOnUse">
<stop stop-color="#FF3300"/>
<stop offset="1" stop-color="#FF3300" stop-opacity="0"/>
</linearGradient>
</defs>
</svg>
